<?xml version="1.0" encoding="utf-8"?>
<!-- Generator: Adobe Illustrator 17.0.0, SVG Export Plug-In . SVG Version: 6.00 Build 0)  -->
<!DOCTYPE svg PUBLIC "-//W3C//DTD SVG 1.1//EN" "http://www.w3.org/Graphics/SVG/1.1/DTD/svg11.dtd" [
	<!ENTITY st0 "display:none;">
	<!ENTITY st1 "display:inline;">
	<!ENTITY st2 "fill:#ED1C24;">
]>
<svg version="1.1" id="Layer_1" xmlns="http://www.w3.org/2000/svg" xmlns:xlink="http://www.w3.org/1999/xlink" x="0px" y="0px"
	 width="349.4825134px" height="101.9949036px" viewBox="0 0 349.4825134 101.9949036"
	 style="enable-background:new 0 0 349.4825134 101.9949036;" xml:space="preserve">
<g style="&st0;">
	<path style="&st1;" d="M84.1489029,93.7823944H65.5815201L61.001442,77.3190155H35.9970474l-4.8276367,16.4633789H12.6020288
		l23.1474609-76.6220703c0.9072266-2.9707031,2.4331055-5.5083008,4.5800781-7.612793
		c2.1450195-2.1040039,4.7036133-3.15625,7.6748047-3.15625c3.2993164,0,6.1889648,1.1352539,8.6645508,3.4038086
		c2.4755859,2.2709961,4.2089844,5.0556641,5.1992188,8.3554688L84.1489029,93.7823944z M56.0502701,61.3512421
		L48.623024,23.9684277l-8.1694336,37.3828125H56.0502701z"/>
	<path style="&st1;" d="M131.6816254,24.0919628h-16.2158279v69.6904297H97.2695084V24.0919628H80.9301529V7.7526073h50.7514725
		V24.0919628z"/>
	<path style="&st1;" d="M200.132309,93.7823944h-18.5668945l-4.5800781-16.4633789h-25.0043945l-4.8276367,16.4633789h-18.5673828
		l23.1474609-76.6220703c0.9072266-2.9707031,2.4331055-5.5083008,4.5800781-7.612793
		c2.1450195-2.1040039,4.7036133-3.15625,7.6748047-3.15625c3.2993164,0,6.1889648,1.1352539,8.6645508,3.4038086
		c2.4755859,2.2709961,4.2089844,5.0556641,5.1992188,8.3554688L200.132309,93.7823944z M172.0341644,61.3512421
		l-7.4272461-37.3828125l-8.1694336,37.3828125H172.0341644z"/>
	<path style="&st1;" d="M264.9945984,93.7823944h-21.0439301L226.250473,59.8658905
		c-0.8261719-1.6499023-1.5068359-3.1352539-2.0429688-4.456543c-0.5380859-1.3188477-0.8046875-2.3515625-0.8046875-3.0942383
		c0-3.7949219,2.9492188-6.9106445,8.8505859-9.3457031c5.8994141-2.4331055,8.8505859-5.4658203,8.8505859-9.0981445
		c0-2.2280293-0.8466797-4.4135761-2.5371094-6.5605488c-1.6923828-2.1450195-3.5283203-3.21875-5.5087891-3.21875h-10.3974609
		v69.6904297h-17.578125v-74.394043c0-2.6401367,1.1953125-5.1987305,3.5898438-7.6743164
		c2.3925781-2.4760742,4.7851563-3.7138672,7.1796875-3.7138672h17.7011719c6.8486328,0,12.8310547,2.4755859,17.9482422,7.4272461
		c5.1161957,4.9511719,7.6747894,10.6879883,7.6747894,17.2060566c0,5.1987305-1.4658203,9.6142578-4.394516,13.2446289
		c-2.9296875,3.6323242-6.953125,6.6435547-12.0683594,9.0361328L264.9945984,93.7823944z"/>
	<path style="&st1;" d="M290.1215515,94.1539764H271.801239V8.0001659h18.3203125V94.1539764z"/>
</g>
<g>
	<path style="&st2;" d="M84.1489029,93.7823944H65.5815201L61.001442,77.3190155H35.9970474l-4.8276367,16.4633789H12.6020288
		l23.1474609-76.6220703c0.9072266-2.9707031,2.4331055-5.5083008,4.5800781-7.612793
		c2.1450195-2.1040039,4.7036133-3.15625,7.6748047-3.15625c3.2993164,0,6.1889648,1.1352539,8.6645508,3.4038086
		c2.4755859,2.2709961,4.2089844,5.0556641,5.1992188,8.3554688L84.1489029,93.7823944z M56.0502701,61.3512421
		L48.623024,23.9684277l-8.1694336,37.3828125H56.0502701z"/>
	<path style="&st2;" d="M131.6816254,24.0919628h-16.2158279v69.6904297H97.2695084V24.0919628H80.9301529V7.7526073h50.7514725
		V24.0919628z"/>
	<path style="&st2;" d="M200.132309,93.7823944h-18.5668945l-4.5800781-16.4633789h-25.0043945l-4.8276367,16.4633789h-18.5673828
		l23.1474609-76.6220703c0.9072266-2.9707031,2.4331055-5.5083008,4.5800781-7.612793
		c2.1450195-2.1040039,4.7036133-3.15625,7.6748047-3.15625c3.2993164,0,6.1889648,1.1352539,8.6645508,3.4038086
		c2.4755859,2.2709961,4.2089844,5.0556641,5.1992188,8.3554688L200.132309,93.7823944z M172.0341644,61.3512421
		l-7.4272461-37.3828125l-8.1694336,37.3828125H172.0341644z"/>
	<path style="&st2;" d="M264.9945984,93.7823944h-21.0439301L226.250473,59.8658905
		c-0.8261719-1.6499023-1.5068359-3.1352539-2.0429688-4.456543c-0.5380859-1.3188477-0.8046875-2.3515625-0.8046875-3.0942383
		c0-3.7949219,2.9492188-6.9106445,8.8505859-9.3457031c5.8994141-2.4331055,8.8505859-5.4658203,8.8505859-9.0981445
		c0-2.2280293-0.8466797-4.4135761-2.5371094-6.5605488c-1.6923828-2.1450195-3.5283203-3.21875-5.5087891-3.21875h-10.3974609
		v69.6904297h-17.578125v-74.394043c0-2.6401367,1.1953125-5.1987305,3.5898438-7.6743164
		c2.3925781-2.4760742,4.7851563-3.7138672,7.1796875-3.7138672h17.7011719c6.8486328,0,12.8310547,2.4755859,17.9482422,7.4272461
		c5.1161957,4.9511719,7.6747894,10.6879883,7.6747894,17.2060566c0,5.1987305-1.4658203,9.6142578-4.394516,13.2446289
		c-2.9296875,3.6323242-6.953125,6.6435547-12.0683594,9.0361328L264.9945984,93.7823944z"/>
	<path style="&st2;" d="M290.1215515,94.1539764H271.801239V8.0001659h18.3203125V94.1539764z"/>
</g>
<g style="&st0;">
	<path style="&st1;" d="M346.4076843,78.2887421v12.0541992c0,0.5239258-0.3378906,1.0102539-1.015625,1.4575195
		c-0.6767578,0.4482422-1.3427734,0.671875-1.9980469,0.671875c-1.0693359,0-2.4511719-0.7832031-4.1435547-2.3505859
		c-1.6923828-1.5664063-3.3789063-3.1445313-5.0605469-4.7329102c-1.6816406-1.5888672-3.0136719-2.3833008-3.9960938-2.3833008
		c-0.5244141,0-1.015625,0.21875-1.4746094,0.6552734c-0.4580078,0.4370117-0.6875,0.9824219-0.6875,1.6376953
		c0,0.6992188,0.2402344,1.2885742,0.7207031,1.769043s1.0810547,0.7202148,1.8007813,0.7202148v4.6845703
		c-1.9433594,0-3.6132813-0.7207031-5.0117188-2.1621094c-1.3964844-1.4414063-2.0957031-3.1333008-2.0957031-5.0771484
		c0-1.9433594,0.7041016-3.5869141,2.1123047-4.9296875c1.4091797-1.3432617,3.0517578-2.0146484,4.9296875-2.0146484
		c1.9873047,0,3.9423828,0.9243164,5.8632813,2.7729492c1.921875,1.8486328,3.7568359,3.6323242,5.5039063,5.3505859
		l0.0654297-8.1235352H346.4076843z"/>
	<path style="&st1;" d="M338.9067078,59.6832733c2.2490234,0,4.1269531,0.8188477,5.6337891,2.4570313
		c1.5068359,1.6376953,2.2607422,3.5922852,2.2607422,5.8632813c0,2.1181641-0.8359375,3.8813477-2.5058594,5.2900391
		c-1.6708984,1.4086914-3.5869141,2.112793-5.7490234,2.112793c-0.8300781,0-2.4296875-0.5185547-4.7988281-1.5561523
		c-2.3691406-1.0366211-4.6787109-2.1235352-6.9277344-3.2592773c-2.2490234-1.1347656-3.3740234-1.7246094-3.3740234-1.7685547
		v-5.3066406l8.3203125,3.9633789c0-2.2485352,0.6708984-4.1108398,2.0136719-5.5849609
		C335.1235046,60.420578,336.832489,59.6832733,338.9067078,59.6832733z M339.0707703,64.498703
		c-0.8740234,0-1.6220703,0.300293-2.2441406,0.9008789s-0.9335938,1.3154297-0.9335938,2.1455078
		c0,0.8081055,0.3388672,1.5068359,1.015625,2.0961914c0.6767578,0.5898438,1.375,0.8842773,2.0957031,0.8842773
		c0.9394531,0,1.6708984-0.2724609,2.1953125-0.8188477c0.5234375-0.5454102,0.7861328-1.2773438,0.7861328-2.1943359
		c0-0.9389648-0.2890625-1.6757813-0.8681641-2.2114258C340.5395203,64.7662811,339.8569031,64.498703,339.0707703,64.498703z"/>
	<path style="&st1;" d="M346.5717468,45.7628632c0,3.2539063-1.0371094,6.0874023-3.1123047,8.5
		c-2.0742188,2.4135742-4.8037109,3.6196289-8.1884766,3.6196289c-3.3417969,0-6.1748047-1.1733398-8.5009766-3.5209961
		c-2.3251953-2.3476563-3.4882813-5.1044922-3.4882813-8.2709961c0-3.1005859,1.1630859-5.8251953,3.4882813-8.1728516
		c2.3261719-2.347168,5.0283203-3.5214844,8.1074219-3.5214844c3.0361328,0,5.7441406,1.0541992,8.1240234,3.1611328
		C345.3813171,39.6652069,346.5717468,42.4000702,346.5717468,45.7628632z M334.8774109,39.2115936
		c-1.7470703,0-3.3134766,0.6826172-4.7001953,2.0473633s-2.0800781,2.9316406-2.0800781,4.7001953
		c0,2.03125,0.7255859,3.7290039,2.1777344,5.09375c1.453125,1.3652344,3.1181641,2.0473633,4.9960938,2.0473633
		c1.9648438,0,3.5751953-0.6987305,4.8310547-2.0966797c1.2558594-1.3969727,1.8837891-3.0678711,1.8837891-5.0117188
		c0-1.8554688-0.6552734-3.4501953-1.9658203-4.7822266C338.7104187,39.8780975,336.995575,39.2115936,334.8774109,39.2115936z"/>
	<path style="&st1;" d="M346.5717468,20.3112011c0,3.2539063-1.0371094,6.0874023-3.1123047,8.5
		c-2.0742188,2.4135742-4.8037109,3.6196308-8.1884766,3.6196308c-3.3417969,0-6.1748047-1.1733418-8.5009766-3.520998
		c-2.3251953-2.3476563-3.4882813-5.1044922-3.4882813-8.2709961c0-3.1005859,1.1630859-5.8251953,3.4882813-8.1728516
		c2.3261719-2.347168,5.0283203-3.5214844,8.1074219-3.5214844c3.0361328,0,5.7441406,1.0541992,8.1240234,3.1611328
		C345.3813171,14.2135448,346.5717468,16.9484081,346.5717468,20.3112011z M334.8774109,13.7599316
		c-1.7470703,0-3.3134766,0.6826172-4.7001953,2.0473633s-2.0800781,2.9316406-2.0800781,4.7001953
		c0,2.03125,0.7255859,3.7290039,2.1777344,5.09375c1.453125,1.3652344,3.1181641,2.0473633,4.9960938,2.0473633
		c1.9648438,0,3.5751953-0.6987305,4.8310547-2.0966797c1.2558594-1.3969727,1.8837891-3.0678711,1.8837891-5.0117188
		c0-1.8554688-0.6552734-3.4501953-1.9658203-4.7822266C338.7104187,14.4264355,336.995575,13.7599316,334.8774109,13.7599316z"/>
</g>
<g>
	<path style="&st2;" d="M331.3606873,79.362999v12.4021149c0,0.5392761-0.3481445,1.0395966-1.0444641,1.4997482
		c-0.6963196,0.4609604-1.3820801,0.6910324-2.0556641,0.6910324c-1.1012573,0-2.5222778-0.8058701-4.2638855-2.4180145
		c-1.7407532-1.6121445-3.4758606-3.2356491-5.2069092-4.8701096c-1.7294006-1.6344681-3.1000977-2.4516983-4.1112976-2.4516983
		c-0.5388794,0-1.0444641,0.2248001-1.5167847,0.673996c-0.4715271,0.4496002-0.7076721,1.0111923-0.7076721,1.6851807
		c0,0.7194443,0.2475281,1.3260727,0.7417603,1.8199005c0.4942322,0.4942398,1.1118164,0.7413559,1.8535767,0.7413559v4.8193893
		c-1.9996643,0-3.7185364-0.7413483-5.1565857-2.2244568c-1.4372559-1.4827042-2.1571045-3.2234802-2.1571045-5.2235489
		c0-1.9996567,0.7247009-3.6905212,2.1741333-5.0721893c1.4494324-1.3816605,3.1398926-2.0727005,5.0722046-2.0727005
		c2.044281,0,4.0552979,0.9511414,6.0322266,2.8530121c1.9777527,1.9022675,3.864624,3.7371826,5.6622009,5.5051498
		l0.0673523-8.3581619H331.3606873z"/>
	<path style="&st2;" d="M323.6428528,60.2213707c2.3145447,0,4.2468262,0.8423882,5.7969055,2.5275726
		c1.5500488,1.6847801,2.3250732,3.6958046,2.3250732,6.0322533c0,2.1798248-0.859436,3.9936371-2.5774841,5.4430695
		c-1.7188416,1.4490204-3.690918,2.1737366-5.9153748,2.1737366c-0.8529358,0-2.4987793-0.5335922-4.936676-1.6007843
		c-2.4378967-1.0671844-4.8132935-2.1850967-7.1278381-3.3533249c-2.3137207-1.1682281-3.4718018-1.7748566-3.4718018-1.8199005
		v-5.4597015l8.5602112,4.0780334c0-2.3141327,0.6914673-4.2297974,2.0727234-5.7461777
		C319.7506409,60.9793587,321.5084534,60.2213707,323.6428528,60.2213707z M323.8116455,65.1754761
		c-0.8983765,0-1.6685486,0.3087997-2.3088684,0.926796c-0.6402893,0.6179962-0.9600525,1.3536606-0.9600525,2.2074127
		c0,0.8314362,0.3481445,1.5500641,1.0444641,2.1567001c0.697113,0.6066284,1.4153442,0.9101486,2.1571045,0.9101486
		c0.9665527,0,1.7188721-0.2807922,2.2577209-0.8427963c0.5397034-0.5611801,0.8091125-1.3143005,0.8091125-2.2577286
		c0-0.965744-0.297821-1.7241364-0.8934937-2.2751846C325.3227539,65.450592,324.6207581,65.1754761,323.8116455,65.1754761z"/>
	<path style="&st2;" d="M331.52948,45.8987236c0,3.348053-1.0671692,6.2631416-3.2015686,8.745266
		c-2.1343689,2.4829407-4.9431458,3.724205-8.4255066,3.724205c-3.4377136,0-6.3528137-1.2075844-8.7460632-3.6231651
		c-2.3924561-2.4147682-3.5886841-5.2515411-3.5886841-8.50951c0-3.1898003,1.196228-5.9928932,3.5886841-8.408474
		c2.3932495-2.4147682,5.1736145-3.6227608,8.341095-3.6227608c3.1236572,0,5.909729,1.0842323,8.3581543,3.2522888
		C330.3048706,39.6250343,331.52948,42.4390869,331.52948,45.8987236z M319.4974365,39.1583939
		c-1.7967529,0-3.4085083,0.7023964-4.8360291,2.1063766c-1.4258728,1.4043884-2.1400452,3.0161285-2.1400452,4.8360291
		c0,2.0893364,0.7474365,3.8366051,2.2414856,5.2405891c1.4940796,1.4043846,3.2072754,2.1063766,5.1395569,2.1063766
		c2.0215759,0,3.678772-0.7190323,4.9707642-2.1571007c1.2919617-1.4372559,1.9379578-3.1561203,1.9379578-5.1561852
		c0-1.9091721-0.6743774-3.5497208-2.0223694-4.9204292C323.4407654,39.8441544,321.6772766,39.1583939,319.4974365,39.1583939z"/>
	<path style="&st2;" d="M331.52948,19.7128353c0,3.3480511-1.0671692,6.2631397-3.2015686,8.745266
		c-2.1343689,2.4829388-4.9431458,3.7242069-8.4255066,3.7242069c-3.4377136,0-6.3528137-1.2075882-8.7460632-3.6231689
		c-2.3924561-2.4147682-3.5886841-5.2515411-3.5886841-8.50951c0-3.1897984,1.196228-5.9928942,3.5886841-8.408473
		c2.3932495-2.4147682,5.1736145-3.6227608,8.341095-3.6227608c3.1236572,0,5.909729,1.0842314,8.3581543,3.2522879
		C330.3048706,13.439146,331.52948,16.2531967,331.52948,19.7128353z M319.4974365,12.9725046
		c-1.7967529,0-3.4085083,0.7023964-4.8360291,2.1063786c-1.4258728,1.4043875-2.1400452,3.0161276-2.1400452,4.8360281
		c0,2.0893364,0.7474365,3.8366051,2.2414856,5.2405872c1.4940796,1.4043865,3.2072754,2.1063786,5.1395569,2.1063786
		c2.0215759,0,3.678772-0.7190342,4.9707642-2.1571007c1.2919617-1.4372559,1.9379578-3.1561203,1.9379578-5.1561852
		c0-1.9091721-0.6743774-3.5497208-2.0223694-4.9204302C323.4407654,13.6582642,321.6772766,12.9725046,319.4974365,12.9725046z"/>
</g>
<g>
	<path d="M298.640564,5.6271191c0.6121826,0,1.2098694,0.1570721,1.7930603,0.4712157
		c0.5831604,0.3141437,1.0374756,0.7636108,1.3628845,1.3484015c0.3254395,0.5847912,0.4881287,1.1945524,0.4881287,1.8292837
		c0,0.6282873-0.1602783,1.2324104-0.4808655,1.8123674c-0.3205872,0.579958-0.77005,1.0302305-1.3484192,1.3508186
		c-0.5783386,0.3205881-1.1832581,0.4808817-1.8147888,0.4808817c-0.6315002,0-1.2364197-0.1602936-1.8147583-0.4808817
		c-0.5783691-0.3205881-1.0286255-0.7708607-1.3508301-1.3508186c-0.3222046-0.579957-0.4833069-1.1840801-0.4833069-1.8123674
		c0-0.6347313,0.1635132-1.2444925,0.4905701-1.8292837c0.3270264-0.5847907,0.782135-1.0342579,1.3652954-1.3484015
		C297.4307251,5.7841911,298.0284119,5.6271191,298.640564,5.6271191z M298.640564,6.2312417
		c-0.5122681,0-1.0108948,0.1312962-1.4957886,0.393888c-0.4849243,0.2625918-0.8642883,0.6379538-1.1381836,1.1260848
		c-0.2738647,0.488131-0.4107971,0.9963994-0.4107971,1.5248055c0,0.5251837,0.1345215,1.0286198,0.4035645,1.5103064
		c0.269043,0.4816875,0.6452026,0.857049,1.1285095,1.1260853c0.4832764,0.2690353,0.9875183,0.403553,1.5126953,0.403553
		c0.5252075,0,1.0294495-0.1345177,1.5127258-0.403553c0.4833069-0.2690363,0.8586731-0.6443977,1.1260986-1.1260853
		c0.2674255-0.4816866,0.401123-0.9851227,0.401123-1.5103064c0-0.5284061-0.1361084-1.0366745-0.4083862-1.5248055
		c-0.2722473-0.488131-0.6516418-0.863493-1.1381531-1.1260848S299.1496582,6.2312417,298.640564,6.2312417z M297.040863,11.2913733
		V7.3669925h1.3483887c0.4607544,0,0.79422,0.0362473,1.0004272,0.1087418
		c0.2062073,0.072495,0.3705444,0.1989579,0.492981,0.3793893s0.1836548,0.3721399,0.1836548,0.5751247
		c0,0.2867565-0.1022949,0.5364609-0.3069153,0.7491121c-0.2045898,0.2126513-0.4760437,0.3318644-0.8143311,0.3576403
		c0.1385193,0.0579958,0.2496948,0.1272688,0.3334656,0.207818c0.1578674,0.1546555,0.3511963,0.4140263,0.5799561,0.7781105
		l0.4784546,0.7684441h-0.7732544l-0.3479919-0.6186218c-0.2738647-0.4865198-0.4945679-0.7909975-0.6621094-0.9134331
		c-0.1159973-0.0902157-0.2851563-0.1353235-0.5074768-0.1353235h-0.3721313v1.6673784H297.040863z M297.6739807,9.0827007
		h0.7684326c0.3673096,0,0.6178284-0.0547743,0.7515259-0.1643209c0.133728-0.1095476,0.200592-0.2545376,0.200592-0.4349689
		c0-0.1159916-0.0322266-0.2199001-0.0966797-0.3117275c-0.0644226-0.0918264-0.1538391-0.1602936-0.268219-0.2054014
		s-0.3262329-0.0676618-0.6355286-0.0676618h-0.7201233V9.0827007z"/>
</g>
<g>
	<path d="M334.8529968,11.6612988V7.5948925h-1.546875V6.8859081h3.9023438v0.7089844h-1.5585938v4.0664063H334.8529968z
		 M337.7416687,11.6612988V6.8859081h1.171875l1.2070313,3.8144531l1.1660156-3.8144531h1.1484375v4.7753906h-0.7265625V7.6534863
		l-1.2304688,4.0078125h-0.7207031l-1.2832031-4.0664063v4.0664063H337.7416687z"/>
</g>
<g>
</g>
<g>
</g>
<g>
</g>
<g>
</g>
<g>
</g>
<g>
</g>
</svg>
