<?xml version="1.0" encoding="UTF-8" standalone="no"?>
<!-- Creator: CorelDRAW -->
<svg xmlns:dc="http://purl.org/dc/elements/1.1/" xmlns:cc="http://web.resource.org/cc/" xmlns:rdf="http://www.w3.org/1999/02/22-rdf-syntax-ns#" xmlns:svg="http://www.w3.org/2000/svg" xmlns="http://www.w3.org/2000/svg" xmlns:sodipodi="http://sodipodi.sourceforge.net/DTD/sodipodi-0.dtd" xmlns:inkscape="http://www.inkscape.org/namespaces/inkscape" xml:space="preserve" width="1179.0658" height="199.4191" style="shape-rendering: geometricprecision; text-rendering: geometricprecision; fill-rule: evenodd; clip-rule: evenodd;" viewBox="0 0 210 297" id="svg2" sodipodi:version="0.32" inkscape:version="0.44.1" sodipodi:docname="Figura1.svg" sodipodi:docbase="C:\Documents and Settings\Matias\Desktop" version="1.0"><metadata id="metadata38"><rdf:RDF><cc:Work rdf:about=""><dc:format>image/svg+xml</dc:format><dc:type rdf:resource="http://purl.org/dc/dcmitype/StillImage"/></cc:Work></rdf:RDF></metadata><sodipodi:namedview inkscape:window-height="844" inkscape:window-width="1440" inkscape:pageshadow="2" inkscape:pageopacity="0.0" guidetolerance="10.0" gridtolerance="10.0" objecttolerance="10.0" borderopacity="1.0" bordercolor="#666666" pagecolor="#ffffff" id="base" inkscape:zoom="0.70710678" inkscape:cx="652.10241" inkscape:cy="-180.96718" inkscape:window-x="-4" inkscape:window-y="-4" inkscape:current-layer="_42677040" width="1000px" height="200px"/>
 <defs id="defs4">
  <style type="text/css" id="style6">
   
    .fil1 {fill:black}
    .fil0 {fill:white}
   
  </style>
 </defs>
 <g id="Camada_x0020_1" transform="translate(-187.131, -188.894)">
  <metadata id="CorelCorpID_0Corel-Layer"/>
  <g id="_42677040">
   
   <path id="_43413888" class="fil1" d="M 1099.1885,447.12068 C 1099.1885,463.21587 1112.2378,476.27074 1128.3385,476.27074 L 1138.4351,476.27074 C 1154.5359,476.27074 1167.5852,463.21866 1167.5852,447.12068 L 1167.5852,218.04671 C 1167.5852,201.94588 1154.5331,188.89384 1138.4323,188.89384 L 1128.3414,188.89384 C 1112.2378,188.89384 1099.1856,201.94872 1099.1856,218.04671 L 1099.1885,447.12068 L 1099.1885,447.12068 z " style="fill: black;"/>
   <path id="_43223480" class="fil0" d="M 1103.0631,446.95099 C 1103.0631,461.0438 1114.4805,472.46399 1128.5676,472.46399 L 1138.2909,472.46115 C 1152.3782,472.46115 1163.7983,461.0438 1163.7983,446.95383 L 1163.801,218.0269 C 1163.801,203.93976 1152.3752,192.5224 1138.2879,192.5224 L 1128.5676,192.5224 C 1114.4805,192.5224 1103.0603,203.93976 1103.0603,218.0269 L 1103.0631,446.95099 L 1103.0631,446.95099 z " style="fill: white;"/>
   <path id="_43252336" class="fil1" d="M 1119.4665,439.56943 C 1119.4665,447.72026 1124.874,454.32972 1131.5458,454.32972 C 1138.2146,454.32972 1143.622,447.72309 1143.622,439.56943 C 1143.622,431.41582 1138.2146,424.80636 1131.5458,424.80636 C 1124.874,424.80636 1119.4665,431.41582 1119.4665,439.56943 z " style="fill: black;"/>
   <path id="_43515888" class="fil1" d="M 1131.2883,334.55917 L 1131.2883,353.75122 C 1131.3675,353.75122 1131.4468,353.75403 1131.526,353.75403 C 1138.1947,353.75403 1143.6022,347.14459 1143.6022,338.99094 C 1143.6022,330.84011 1138.1947,324.23066 1131.526,324.23066 C 1124.8542,324.23066 1119.4468,330.84011 1119.4468,338.99094 C 1119.4468,345.62302 1123.0273,351.23696 1127.9539,353.09789 L 1127.9681,343.41986 L 1126.1495,343.41986 C 1123.7059,343.41986 1121.7178,341.43449 1121.7178,338.99094 C 1121.7178,336.54457 1123.7032,334.56201 1126.1466,334.56201 L 1131.2883,334.55917 L 1131.2883,334.55917 z " style="fill: black;"/>
   <polygon id="_43468352" class="fil1" points="126.684,143.459 126.908,143.459 126.908,143.146 126.684,143.146 126.684,143.459" style="fill: black;" transform="matrix(28.2818, 0, 0, 28.2818, -2436.46, -3792.32)"/>
   <polygon id="_43223936" class="fil1" points="125.756,143.459 126.539,143.459 126.539,143.146 125.756,143.146 125.756,143.459" style="fill: black;" transform="matrix(28.2818, 0, 0, 28.2818, -2436.46, -3792.32)"/>
   <path id="_43424608" class="fil1" d="M 1132.3913,239.67378 L 1152.7202,239.67378 L 1152.7202,248.53447 L 1120.134,248.53447 L 1120.134,240.54771 L 1142.4341,225.75634 C 1144.0972,224.57133 1143.3052,223.30711 1141.8034,223.23079 L 1120.134,223.22793 L 1120.134,214.37008 L 1152.7202,214.37008 L 1152.7202,224.01983 L 1131.4468,238.01648 C 1130.6519,238.56798 1130.8104,239.59744 1132.3913,239.67378 z " style="fill: black;"/>
   <path id="_43482504" class="fil1" d="M 1142.29,272.5655 L 1120.1426,272.5655 L 1120.1426,281.42054 L 1133.5848,281.42054 C 1141.4923,281.42054 1141.3368,292.4957 1133.268,292.4957 L 1120.1426,292.49285 L 1120.1426,301.35353 L 1136.2772,301.35353 C 1140.0727,301.35353 1143.7096,296.92462 1143.7096,292.18177 C 1143.7125,288.53906 1141.6508,282.84875 1140.0698,281.42334 L 1142.29,281.42054 L 1142.29,272.5655 z " style="fill: black;"/>
   <path id="_44150760" class="fil1" d="M 1142.29,358.59869 L 1120.1426,358.59869 L 1120.1426,367.45937 L 1133.5848,367.45937 C 1141.4923,367.45937 1141.3368,378.5317 1133.268,378.5317 L 1120.1426,378.5317 L 1120.1426,387.38672 L 1136.2772,387.38672 C 1140.0727,387.38672 1143.7096,382.96064 1143.7096,378.21495 C 1143.7125,374.57792 1141.6508,368.88478 1140.0698,367.45937 L 1142.29,367.45937 L 1142.29,358.59869 z " style="fill: black;"/>
   <path id="_43775048" class="fil1" d="M 1121.7291,411.11798 C 1120.3065,408.90632 1119.3563,406.53351 1119.3563,403.84674 C 1119.3591,398.15079 1120.6233,392.45765 1131.5372,392.45765 C 1143.4015,392.45484 1142.8358,401.64073 1143.0818,403.84674 C 1143.2403,405.26648 1142.5303,408.58957 1140.7089,411.12081 L 1152.7343,411.11798 L 1152.7343,419.97581 L 1120.1482,419.97581 L 1120.1482,411.11798 L 1121.7291,411.11798 z " style="fill: black;"/>
   <polygon id="_43776688" class="fil1" points="125.756,145.036 126.539,145.036 126.539,144.807 126.629,144.807 126.629,145.036 126.735,145.036 126.735,145.35 126.629,145.35 126.629,145.579 126.539,145.579 126.539,145.35 125.756,145.35 125.756,145.036" style="fill: black;" transform="matrix(28.2818, 0, 0, 28.2818, -2436.46, -3792.32)"/>
   <path id="_43777288" class="fil0" d="M 1121.7291,439.56943 C 1121.7291,437.12309 1123.7145,435.14051 1126.1579,435.14051 L 1136.5996,435.13772 C 1139.046,435.13772 1141.0257,437.12309 1141.0257,439.56943 C 1141.0257,442.01017 1139.0432,443.99555 1136.5968,443.99555 L 1126.1608,443.99555 C 1123.7174,443.99555 1121.7291,442.01299 1121.7291,439.56943 z " style="fill: white;"/>
   <path id="_43777976" class="fil0" d="M 1134.6255,334.55917 L 1134.6255,343.41986 L 1136.6052,343.41986 C 1139.0516,343.41986 1141.0313,341.43449 1141.0313,338.99094 C 1141.0313,336.54457 1139.0489,334.56201 1136.6024,334.56201 L 1134.6255,334.55917 L 1134.6255,334.55917 z " style="fill: white;"/>
   <path id="_43437104" class="fil0" d="M 1137.0579,411.11798 C 1140.6949,408.74794 1140.2197,402.26575 1134.2097,402.26575 L 1128.5166,402.26575 C 1124.7241,402.26575 1119.8201,405.26929 1125.0352,411.12081 L 1137.0579,411.11798 z " style="fill: white;"/>
   <path id="_43438192" class="fil1" d="M 1150.3502,456.17086 C 1150.3502,453.69621 1148.3536,451.70518 1145.9072,451.70518 C 1143.4353,451.70518 1141.4414,453.69904 1141.4414,456.17086 C 1141.4414,458.63137 1143.4326,460.61111 1145.9072,460.61111 C 1148.3563,460.60827 1150.3502,458.63137 1150.3502,456.17086 z " style="fill: black;"/>
   <path id="_43774416" class="fil0" d="M 1149.8129,456.17086 C 1149.8129,458.32873 1148.0623,460.07659 1145.9072,460.07659 C 1143.7296,460.07659 1141.976,458.32873 1141.976,456.17086 C 1141.9788,454.00447 1143.7265,452.25384 1145.9072,452.25384 C 1148.065,452.25384 1149.8101,454.00447 1149.8129,456.17086 z " style="fill: white;"/>
   <path id="_43440224" class="fil1" d="M 1145.7119,455.12445 L 1145.7119,456.23874 L 1143.4184,457.66133 L 1143.4184,458.38534 L 1145.7119,456.88357 C 1145.7347,457.76596 1146.0939,458.45604 1147.0753,458.45604 C 1147.4936,458.45321 1147.9379,458.2694 1148.1499,457.89604 C 1148.3705,457.52555 1148.3931,457.10414 1148.3931,456.68277 L 1148.3961,454.51354 L 1143.4184,454.51354 L 1143.4184,455.12445 L 1145.7119,455.12445 z " style="fill: black;"/>
   <path id="_43442424" class="fil0" d="M 1147.9463,455.12445 L 1147.9463,456.54417 C 1147.9463,457.16355 1147.8531,457.83948 1147.081,457.83948 C 1146.0712,457.83948 1146.1843,456.75345 1146.1843,456.0549 L 1146.1843,455.12445 L 1147.9463,455.12445 L 1147.9463,455.12445 z " style="fill: white;"/>
   <polygon id="_43443024" class="fil1" points="116.606,141.028 119.123,141.028 120.366,143.887 122.23,141.028 124.808,141.028 121.173,146.683 120.583,151.095 118.253,151.095 118.936,146.061 116.606,141.028" style="fill: black;" transform="matrix(28.2818, 0, 0, 28.2818, -2436.46, -3792.32)"/>
   <polygon id="_43441624" class="fil1" points="98.0884,151.095 98.3992,148.857 94.8576,148.857 95.075,147.118 98.1505,147.118 98.4614,144.881 95.4168,144.881 95.6343,143.265 99.1759,143.265 99.5176,141.028 93.6458,141.028 92.2477,151.095 98.0884,151.095" style="fill: black;" transform="matrix(28.2818, 0, 0, 28.2818, -2436.46, -3792.32)"/>
   <path id="_43775888" class="fil1" d="M -253.70213,340.30039 L -231.73282,281.43467 L -224.70197,340.30039 L -253.70213,340.30039 L -253.70213,340.30039 z M -277.42771,396.54156 L -217.67677,396.54156 L -207.13053,480.89763 L -99.05165,480.89763 L -48.964619,326.24718 L -24.359466,480.89763 L 32.758438,480.89763 L 96.025053,317.46569 L 106.5685,480.89763 L 169.83487,480.89763 L 152.26338,196.20187 L 76.691357,196.20187 L 17.820004,346.45168 L -5.028863,196.20187 L -72.687374,196.20187 L -150.0126,429.93387 L -179.01276,196.20187 L -263.36885,196.20187 L -357.38881,432.56689 L -345.08907,340.30039 L -459.3192,340.30039 L -467.22961,396.54156 L -417.14257,396.54156 L -420.65802,415.87213 C -429.4423,421.14105 -449.6525,422.02344 -457.56289,422.02344 C -465.47048,422.02344 -524.34213,416.75171 -521.706,353.48534 C -519.07014,290.22184 -434.71402,231.35045 -334.54277,263.86318 L -324.87607,203.23271 C -391.65784,180.38386 -567.0561,193.17004 -584.97545,349.96993 C -595.51606,442.23359 -511.1597,486.17219 -454.92702,485.29261 C -422.41428,487.04889 -385.50938,474.74632 -372.32727,467.71549 L -376.72224,480.89763 L -309.93763,480.89763 L -277.42771,396.54156 L -277.42771,396.54156 z " style="fill: black;"/>
   <path id="_44102912" class="fil1" d="M 790.18169,193.57448 C 744.48681,191.81817 678.58461,218.1768 656.62096,324.50219 C 634.6517,430.81625 693.52588,473.87527 748.00224,480.90612 C 802.48711,487.93413 878.92996,453.66511 892.9917,351.73755 C 907.05054,249.80717 856.96347,196.21319 790.18169,193.57448 z M 783.15368,254.20496 C 801.60473,254.20496 841.1455,266.50752 831.47879,340.31171 C 821.81771,414.12433 776.12283,422.91147 759.42808,421.15235 C 742.73051,419.39605 708.46149,407.97587 718.12818,340.31171 C 727.79774,272.65883 763.82026,253.32542 783.15368,254.20496 L 783.15368,254.20496 z " style="fill: black;"/>
   <path id="_44104296" class="fil1" d="M 512.51112,305.17441 L 549.41603,305.17441 C 576.65989,305.17441 581.92596,287.60294 582.8055,280.57491 C 583.68508,273.54121 575.78032,259.48237 561.7186,259.48237 L 518.66242,259.47953 L 512.51112,305.17441 z M 496.69312,417.64258 L 546.78301,417.64258 C 574.02402,417.64258 580.16964,396.55569 581.04922,389.52484 C 581.92877,382.4968 574.02119,368.43794 559.96232,368.43794 L 503.72679,368.43794 L 496.69312,417.64258 L 496.69312,417.64258 z M 422.88617,480.91176 L 462.4269,196.21599 L 583.68508,196.21599 C 612.68522,196.21599 654.86184,229.6083 649.59013,274.4208 C 644.3184,319.2361 630.25668,321.87196 620.58997,328.9 C 635.53124,342.07364 650.46967,363.16622 644.3184,402.70698 C 638.16429,442.24773 605.65438,480.91176 548.53645,480.91176 L 422.88617,480.91176 L 422.88617,480.91176 z " style="fill: black;"/>
   <path id="_44106160" class="fil1" d="M 1009.4786,437.84426 C 998.63538,437.84426 989.88506,446.58615 989.88506,457.37284 C 989.88506,468.27264 998.63265,477.01736 1009.4758,477.01736 C 1020.2624,477.01736 1029.0044,468.27264 1029.0044,457.37284 C 1029.0044,446.58335 1020.2597,437.84426 1009.4758,437.84426 L 1009.4786,435.15748 C 1021.7727,435.15748 1031.6855,445.12966 1031.6855,457.37284 C 1031.6884,469.72916 1021.7727,479.6985 1009.4758,479.6985 C 997.11671,479.69565 987.14447,469.72916 987.14447,457.37284 C 987.14739,445.12681 997.11671,435.16033 1009.4758,435.16033 L 1009.4786,437.84426 L 1009.4786,437.84426 z " style="fill: black;"/>
   <path id="_42975192" class="fil1" d="M 1004.2183,447.14897 L 1011.3284,447.14897 C 1014.4252,447.14897 1017.7964,447.61564 1017.7964,451.46476 C 1017.7964,456.53288 1012.3804,455.95309 1008.879,455.95309 L 1004.2183,455.95027 L 1004.2183,458.34007 L 1009.8152,458.34007 L 1016.9309,469.82814 L 1020.5425,469.82814 L 1013.0224,458.34007 C 1017.4513,458.22696 1020.8876,456.41694 1020.8876,451.52135 C 1020.8903,449.41999 1019.9572,447.20838 1018.0877,446.1591 C 1016.2325,445.05046 1014.1282,444.9345 1012.0269,444.9345 L 1001.1893,444.9345 L 1001.1893,469.82814 L 1004.2183,469.82814 L 1004.2183,447.14897 L 1004.2183,447.14897 z " style="fill: black;"/>
  </g>
 </g>
</svg>