<?xml version="1.0" encoding="UTF-8" standalone="no"?>
<svg
   xmlns:dc="http://purl.org/dc/elements/1.1/"
   xmlns:cc="http://creativecommons.org/ns#"
   xmlns:rdf="http://www.w3.org/1999/02/22-rdf-syntax-ns#"
   xmlns:svg="http://www.w3.org/2000/svg"
   xmlns="http://www.w3.org/2000/svg"
   viewBox="0 0 991.25 766.25"
   height="766.25"
   width="991.25"
   xml:space="preserve"
   version="1.1"
   id="svg2"><metadata
     id="metadata8"><rdf:RDF><cc:Work
         rdf:about=""><dc:format>image/svg+xml</dc:format><dc:type
           rdf:resource="http://purl.org/dc/dcmitype/StillImage" /></cc:Work></rdf:RDF></metadata><defs
     id="defs6" /><g
     transform="matrix(1.25,0,0,-1.25,0,766.25)"
     id="g10"><g
       transform="scale(0.1,0.1)"
       id="g12"><path
         id="path14"
         style="fill-opacity:0;fill-rule:nonzero;stroke:none"
         d="m 5,5 7920,0 0,6120 L 5,6125 5,5 Z" /><path
         id="path18"
         style="fill:#eb222c;fill-opacity:1;fill-rule:nonzero;stroke:none"
         d="m 6061.89,2821.7 -677.29,-245.6 681.6,0 259.2,143.1 -263.51,102.5" /><path
         id="path20"
         style="fill:#eb222c;fill-opacity:1;fill-rule:nonzero;stroke:none"
         d="m 5429.39,3530.5 804.61,0 1071.29,-543.1 -420.09,0 -295.4,135.8 -182.1,-74.1 -978.31,481.4" /><path
         id="path22"
         style="fill:#fac816;fill-opacity:1;fill-rule:nonzero;stroke:none"
         d="m 6927.9,3281.7 677.39,245.5 -681.59,0 -259.2,-143 263.4,-102.5" /><path
         id="path24"
         style="fill:#fac816;fill-opacity:1;fill-rule:nonzero;stroke:none"
         d="m 7560.5,2572.9 -804.6,0 -1071.3,543.1 420.1,0 295.4,-135.8 182.1,74.11 978.3,-481.41" /><path
         id="path26"
         style="fill:#fac816;fill-opacity:1;fill-rule:nonzero;stroke:none"
         d="m 351.301,2885.4 533.301,0 0,651.703 -533.301,0 0,-651.703 z" /><path
         id="path28"
         style="fill:#fac816;fill-opacity:1;fill-rule:nonzero;stroke:none"
         d="m 351.301,2606.1 1366.6,0 0,199.508 -1366.6,0 0,-199.508 z" /><path
         id="path30"
         style="fill:#fac816;fill-opacity:1;fill-rule:nonzero;stroke:none"
         d="m 1217.9,3537.1 633.4,0 433.3,-365.7 -313.2,-229.8 -753.5,595.5" /><path
         id="path32"
         style="fill:#fac816;fill-opacity:1;fill-rule:nonzero;stroke:none"
         d="m 2017.9,2905.4 0,-299.3 500,0 0,299.3 966.7,631.7 -466.7,0 -966.6,-631.7 -33.4,0" /><path
         id="path34"
         style="fill:#fac816;fill-opacity:1;fill-rule:nonzero;stroke:none"
         d="m 3551.3,3437.4 533.3,-332.5 0,-498.8 -533.3,0 0,831.3" /><path
         id="path36"
         style="fill:#fac816;fill-opacity:1;fill-rule:nonzero;stroke:none"
         d="m 3617.9,3537.1 1366.7,-931 300,0 0,931.1 -260,0 0,-654.8 -973.3,654.7 -433.4,0" /></g></g></svg>