<svg xmlns:svg="http://www.w3.org/2000/svg" xmlns="http://www.w3.org/2000/svg" xml:space="preserve" width="1179.0658" height="199.4191" viewBox="0 0 210 297" version="1.0" style="shape-rendering:geometricprecision;text-rendering:geometricprecision">
  <defs>
    <style type="text/css">
    .fil1 {fill:black}
    </style>
  </defs>
  <g transform="translate(-187.131, -188.894)">
    <polygon class="fil1" points="116.606,141.028 119.123,141.028 120.366,143.887 122.23,141.028 124.808,141.028 121.173,146.683 120.583,151.095 118.253,151.095 118.936,146.061 116.606,141.028" transform="matrix(28.2818, 0, 0, 28.2818, -2436.46, -3792.32)" fill="black"/>
    <polygon class="fil1" points="98.0884,151.095 98.3992,148.857 94.8576,148.857 95.075,147.118 98.1505,147.118 98.4614,144.881 95.4168,144.881 95.6343,143.265 99.1759,143.265 99.5176,141.028 93.6458,141.028 92.2477,151.095 98.0884,151.095" transform="matrix(28.2818, 0, 0, 28.2818, -2436.46, -3792.32)" fill="black"/>
    <path class="fil1" d="M-253.70213 340.30039L-231.73282 281.43467 -224.70197 340.30039 -253.70213 340.30039 -253.70213 340.30039zM-277.42771 396.54156L-217.67677 396.54156 -207.13053 480.89763 -99.05165 480.89763 -48.964619 326.24718 -24.359466 480.89763 32.758438 480.89763 96.025053 317.46569 106.5685 480.89763 169.83487 480.89763 152.26338 196.20187 76.691357 196.20187 17.820004 346.45168 -5.028863 196.20187 -72.687374 196.20187 -150.0126 429.93387 -179.01276 196.20187 -263.36885 196.20187 -357.38881 432.56689 -345.08907 340.30039 -459.3192 340.30039 -467.22961 396.54156 -417.14257 396.54156 -420.65802 415.87213C-429.4423 421.14105-449.6525 422.02344-457.56289 422.02344 -465.47048 422.02344-524.34213 416.75171-521.706 353.48534 -519.07014 290.22184-434.71402 231.35045-334.54277 263.86318L-324.87607 203.23271C-391.65784 180.38386-567.0561 193.17004-584.97545 349.96993 -595.51606 442.23359-511.1597 486.17219-454.92702 485.29261 -422.41428 487.04889-385.50938 474.74632-372.32727 467.71549L-376.72224 480.89763 -309.93763 480.89763 -277.42771 396.54156 -277.42771 396.54156zM790.18169 193.57448C744.48681 191.81817 678.58461 218.1768 656.62096 324.50219 634.6517 430.81625 693.52588 473.87527 748.00224 480.90612 802.48711 487.93413 878.92996 453.66511 892.9917 351.73755 907.05054 249.80717 856.96347 196.21319 790.18169 193.57448zM783.15368 254.20496C801.60473 254.20496 841.1455 266.50752 831.47879 340.31171 821.81771 414.12433 776.12283 422.91147 759.42808 421.15235 742.73051 419.39605 708.46149 407.97587 718.12818 340.31171 727.79774 272.65883 763.82026 253.32542 783.15368 254.20496L783.15368 254.20496zM512.51112 305.17441L549.41603 305.17441C576.65989 305.17441 581.92596 287.60294 582.8055 280.57491 583.68508 273.54121 575.78032 259.48237 561.7186 259.48237L518.66242 259.47953 512.51112 305.17441zM496.69312 417.64258L546.78301 417.64258C574.02402 417.64258 580.16964 396.55569 581.04922 389.52484 581.92877 382.4968 574.02119 368.43794 559.96232 368.43794L503.72679 368.43794 496.69312 417.64258 496.69312 417.64258zM422.88617 480.91176L462.4269 196.21599 583.68508 196.21599C612.68522 196.21599 654.86184 229.6083 649.59013 274.4208 644.3184 319.2361 630.25668 321.87196 620.58997 328.9 635.53124 342.07364 650.46967 363.16622 644.3184 402.70698 638.16429 442.24773 605.65438 480.91176 548.53645 480.91176L422.88617 480.91176 422.88617 480.91176zM1009.4786 437.84426C998.63538 437.84426 989.88506 446.58615 989.88506 457.37284 989.88506 468.27264 998.63265 477.01736 1009.4758 477.01736 1020.2624 477.01736 1029.0044 468.27264 1029.0044 457.37284 1029.0044 446.58335 1020.2597 437.84426 1009.4758 437.84426L1009.4786 435.15748C1021.7727 435.15748 1031.6855 445.12966 1031.6855 457.37284 1031.6884 469.72916 1021.7727 479.6985 1009.4758 479.6985 997.11671 479.69565 987.14447 469.72916 987.14447 457.37284 987.14739 445.12681 997.11671 435.16033 1009.4758 435.16033L1009.4786 437.84426 1009.4786 437.84426zM1004.2183 447.14897L1011.3284 447.14897C1014.4252 447.14897 1017.7964 447.61564 1017.7964 451.46476 1017.7964 456.53288 1012.3804 455.95309 1008.879 455.95309L1004.2183 455.95027 1004.2183 458.34007 1009.8152 458.34007 1016.9309 469.82814 1020.5425 469.82814 1013.0224 458.34007C1017.4513 458.22696 1020.8876 456.41694 1020.8876 451.52135 1020.8903 449.41999 1019.9572 447.20838 1018.0877 446.1591 1016.2325 445.05046 1014.1282 444.9345 1012.0269 444.9345L1001.1893 444.9345 1001.1893 469.82814 1004.2183 469.82814 1004.2183 447.14897 1004.2183 447.14897z" fill="black"/>
  </g>
</svg>