<?xml version="1.0" encoding="UTF-8" standalone="no"?>
<!-- Generator: Adobe Illustrator 15.0.2, SVG Export Plug-In . SVG Version: 6.00 Build 0)  -->

<svg
   xmlns:dc="http://purl.org/dc/elements/1.1/"
   xmlns:cc="http://creativecommons.org/ns#"
   xmlns:rdf="http://www.w3.org/1999/02/22-rdf-syntax-ns#"
   xmlns:svg="http://www.w3.org/2000/svg"
   xmlns="http://www.w3.org/2000/svg"
   xmlns:xlink="http://www.w3.org/1999/xlink"
   xmlns:sodipodi="http://sodipodi.sourceforge.net/DTD/sodipodi-0.dtd"
   xmlns:inkscape="http://www.inkscape.org/namespaces/inkscape"
   version="1.1"
   id="Ebene_1"
   x="0px"
   y="0px"
   width="150"
   height="44.985504"
   viewBox="0 0 150 44.985504"
   enable-background="new 0 0 871 512"
   xml:space="preserve"
   inkscape:version="0.48.2 r9819"
   sodipodi:docname="Xbox_360_Logo.svg"><metadata
   id="metadata176"><rdf:RDF><cc:Work
       rdf:about=""><dc:format>image/svg+xml</dc:format><dc:type
         rdf:resource="http://purl.org/dc/dcmitype/StillImage" /><dc:title></dc:title></cc:Work></rdf:RDF></metadata><defs
   id="defs174"><radialGradient
     inkscape:collect="always"
     xlink:href="#SVGID_1_"
     id="radialGradient3247"
     gradientUnits="userSpaceOnUse"
     gradientTransform="matrix(1.1328,0,0,1.083,-52.415,-16.8768)"
     cx="343.49219"
     cy="177.81641"
     r="96.351501" /><radialGradient
     inkscape:collect="always"
     xlink:href="#SVGID_2_"
     id="radialGradient3249"
     gradientUnits="userSpaceOnUse"
     gradientTransform="matrix(-1.1328,0,0,1.083,581.0518,-16.8768)"
     cx="90.1465"
     cy="177.81641"
     r="96.351501" /><radialGradient
     inkscape:collect="always"
     xlink:href="#SVGID_3_"
     id="radialGradient3251"
     gradientUnits="userSpaceOnUse"
     gradientTransform="matrix(-0.9659,-0.7017,0.8867,-1.1157,528.1864,1112.2975)"
     cx="543.35638"
     cy="448.80759"
     r="86.041702" /><radialGradient
     inkscape:collect="always"
     xlink:href="#SVGID_4_"
     id="radialGradient3253"
     gradientUnits="userSpaceOnUse"
     gradientTransform="matrix(0.9659,-0.7017,-0.8867,-1.1157,286.2882,1112.2975)"
     cx="544.22748"
     cy="448.3779"
     r="86.041298" /><radialGradient
     inkscape:collect="always"
     xlink:href="#SVGID_5_"
     id="radialGradient3255"
     gradientUnits="userSpaceOnUse"
     gradientTransform="matrix(1.0751,0,0,1.0785,-28.7017,-14.0815)"
     cx="393.29739"
     cy="144.7197"
     r="250.8264" /><radialGradient
     inkscape:collect="always"
     xlink:href="#SVGID_1_"
     id="radialGradient3349"
     gradientUnits="userSpaceOnUse"
     gradientTransform="matrix(1.1328,0,0,1.083,-52.415,-16.8768)"
     cx="343.49219"
     cy="177.81641"
     r="96.351501" /><radialGradient
     inkscape:collect="always"
     xlink:href="#SVGID_2_"
     id="radialGradient3351"
     gradientUnits="userSpaceOnUse"
     gradientTransform="matrix(-1.1328,0,0,1.083,581.0518,-16.8768)"
     cx="90.1465"
     cy="177.81641"
     r="96.351501" /><radialGradient
     inkscape:collect="always"
     xlink:href="#SVGID_3_"
     id="radialGradient3353"
     gradientUnits="userSpaceOnUse"
     gradientTransform="matrix(-0.9659,-0.7017,0.8867,-1.1157,528.1864,1112.2975)"
     cx="543.35638"
     cy="448.80759"
     r="86.041702" /><radialGradient
     inkscape:collect="always"
     xlink:href="#SVGID_4_"
     id="radialGradient3355"
     gradientUnits="userSpaceOnUse"
     gradientTransform="matrix(0.9659,-0.7017,-0.8867,-1.1157,286.2882,1112.2975)"
     cx="544.22748"
     cy="448.3779"
     r="86.041298" /><radialGradient
     inkscape:collect="always"
     xlink:href="#SVGID_5_"
     id="radialGradient3357"
     gradientUnits="userSpaceOnUse"
     gradientTransform="matrix(1.0751,0,0,1.0785,-28.7017,-14.0815)"
     cx="393.29739"
     cy="144.7197"
     r="250.8264" /><radialGradient
     inkscape:collect="always"
     xlink:href="#SVGID_1_"
     id="radialGradient3453"
     gradientUnits="userSpaceOnUse"
     gradientTransform="matrix(1.1328,0,0,1.083,-52.415,-16.8768)"
     cx="343.49219"
     cy="177.81641"
     r="96.351501" /><radialGradient
     inkscape:collect="always"
     xlink:href="#SVGID_2_"
     id="radialGradient3455"
     gradientUnits="userSpaceOnUse"
     gradientTransform="matrix(-1.1328,0,0,1.083,581.0518,-16.8768)"
     cx="90.1465"
     cy="177.81641"
     r="96.351501" /><radialGradient
     inkscape:collect="always"
     xlink:href="#SVGID_3_"
     id="radialGradient3457"
     gradientUnits="userSpaceOnUse"
     gradientTransform="matrix(-0.9659,-0.7017,0.8867,-1.1157,528.1864,1112.2975)"
     cx="543.35638"
     cy="448.80759"
     r="86.041702" /><radialGradient
     inkscape:collect="always"
     xlink:href="#SVGID_4_"
     id="radialGradient3459"
     gradientUnits="userSpaceOnUse"
     gradientTransform="matrix(0.9659,-0.7017,-0.8867,-1.1157,286.2882,1112.2975)"
     cx="544.22748"
     cy="448.3779"
     r="86.041298" /><radialGradient
     inkscape:collect="always"
     xlink:href="#SVGID_5_"
     id="radialGradient3461"
     gradientUnits="userSpaceOnUse"
     gradientTransform="matrix(1.0751,0,0,1.0785,-28.7017,-14.0815)"
     cx="393.29739"
     cy="144.7197"
     r="250.8264" /><radialGradient
     inkscape:collect="always"
     xlink:href="#SVGID_1_"
     id="radialGradient3555"
     gradientUnits="userSpaceOnUse"
     gradientTransform="matrix(1.1328,0,0,1.083,-52.415,-16.8768)"
     cx="343.49219"
     cy="177.81641"
     r="96.351501" /><radialGradient
     inkscape:collect="always"
     xlink:href="#SVGID_2_"
     id="radialGradient3557"
     gradientUnits="userSpaceOnUse"
     gradientTransform="matrix(-1.1328,0,0,1.083,581.0518,-16.8768)"
     cx="90.1465"
     cy="177.81641"
     r="96.351501" /><radialGradient
     inkscape:collect="always"
     xlink:href="#SVGID_3_"
     id="radialGradient3559"
     gradientUnits="userSpaceOnUse"
     gradientTransform="matrix(-0.9659,-0.7017,0.8867,-1.1157,528.1864,1112.2975)"
     cx="543.35638"
     cy="448.80759"
     r="86.041702" /><radialGradient
     inkscape:collect="always"
     xlink:href="#SVGID_4_"
     id="radialGradient3561"
     gradientUnits="userSpaceOnUse"
     gradientTransform="matrix(0.9659,-0.7017,-0.8867,-1.1157,286.2882,1112.2975)"
     cx="544.22748"
     cy="448.3779"
     r="86.041298" /><radialGradient
     inkscape:collect="always"
     xlink:href="#SVGID_5_"
     id="radialGradient3563"
     gradientUnits="userSpaceOnUse"
     gradientTransform="matrix(1.0751,0,0,1.0785,-28.7017,-14.0815)"
     cx="393.29739"
     cy="144.7197"
     r="250.8264" /></defs><sodipodi:namedview
   pagecolor="#ffffff"
   bordercolor="#666666"
   borderopacity="1"
   objecttolerance="10"
   gridtolerance="10"
   guidetolerance="10"
   inkscape:pageopacity="0"
   inkscape:pageshadow="2"
   inkscape:window-width="1920"
   inkscape:window-height="1028"
   id="namedview172"
   showgrid="false"
   inkscape:zoom="5.7673396"
   inkscape:cx="139.29571"
   inkscape:cy="14.103165"
   inkscape:window-x="-8"
   inkscape:window-y="-8"
   inkscape:window-maximized="1"
   inkscape:current-layer="layer1-7"
   fit-margin-left="0.5"
   fit-margin-bottom="0.5"
   fit-margin-top="0.5"
   fit-margin-right="0.5" />

<g
   id="g3565"
   transform="translate(-1.9999987,-262.77216)"><g
     transform="matrix(0.52487675,0,0,0.52227257,113.61798,428.31105)"
     id="layer1-7">
	
	
	
	
	
	
	
	
	<g
   id="g3219"
   transform="matrix(0.5080285,0,0,0.5080285,-104.15184,-114.03014)"><path
     style="fill:#000000;stroke:none"
     inkscape:connector-curvature="0"
     id="path6965"
     d="m 347.077,-235.28 -61.055,-83.112 55.728,-75.534 h -20.899 l -45.347,61.615 -45.347,-61.615 h -20.76 l 55.589,75.546 -60.917,83.1 h 20.896 l 50.538,-68.785 50.674,68.785 h 20.9" /><path
     style="fill:#000000;stroke:none"
     inkscape:connector-curvature="0"
     id="path6967"
     d="m -68.696,-235.28 -60.918,-83.112 55.591,-75.534 h -20.762 l -45.347,61.615 -45.347,-61.615 h -20.898 l 55.728,75.546 -61.054,83.1 h 20.898 l 50.674,-68.785 50.537,68.785 h 20.898" /><path
     style="fill:#000000;stroke:none"
     inkscape:connector-curvature="0"
     id="path6969"
     d="m 4.379,-251.848 c 0,0 -39.338,0 -46.577,0 v -57.721 c 7.239,0 46.577,0 46.577,0 17.756,0 38.791,4.848 38.791,27.604 0,26.17 -24.313,30.117 -38.791,30.117 z m -46.577,-125.51 c 7.239,0 46.577,0 46.577,0 12.566,0 33.737,3.169 33.737,25.228 0,16.69 -12.293,26.607 -33.737,26.607 0,0 -39.338,0 -46.577,0 v -51.835 z m 89.465,64.976 c -3.278,-2.855 -6.83,-5.013 -10.381,-6.625 11.473,-6.255 18.986,-18.029 18.986,-31.757 0,-10.121 -3.689,-43.162 -51.494,-43.162 h -64.333 v 68.43 c 0,0 -20.762,0 -21.444,0 -2.868,3.606 -9.152,12.32 -11.61,15.884 2.322,0 33.054,0 33.054,0 v 74.331 H 4.379 c 34.966,0 56.684,-17.742 56.684,-46.316 0,-12.483 -4.781,-23.11 -13.796,-30.785" /><path
     style="fill:#000000;stroke:none"
     inkscape:connector-curvature="0"
     id="path6971"
     d="m 144.791,-248.569 c -34.01,0 -57.778,-27.168 -57.778,-66.123 0,-38.914 23.767,-66.081 57.778,-66.081 33.873,0 57.504,27.167 57.504,66.081 0,38.955 -23.632,66.123 -57.504,66.123 z m 0,-148.99 c -44.663,0 -75.807,34.066 -75.807,82.868 0,48.83 31.143,82.909 75.807,82.909 44.39,0 75.534,-34.079 75.534,-82.909 -10e-4,-48.803 -31.144,-82.868 -75.534,-82.868" /></g>
</g></g>
</svg>