<svg version="1" xmlns="http://www.w3.org/2000/svg" width="1200" height="1200" viewBox="0 0 900 900"><path d="M296.5 68.6c-48.1 8.6-86.8 44.2-99 91-4.4 16.9-4.7 26.8-4.2 157.9.3 120.4.4 123.2 2.4 132.5 11.1 50.1 46.7 85.8 97.3 97.6 6.6 1.5 15 1.8 69.1 2.1 56 .4 61.8.3 63.3-1.2s1.6-20.8 1.6-239.6c0-162.2-.3-238.6-1-240-1-1.8-2.7-1.9-61.3-1.8-47.6.1-61.9.4-68.2 1.5zm90.5 240v202.6l-40.7-.5c-37.5-.4-41.5-.6-49-2.5-32.2-8.3-56.1-33.1-62.8-65.4-2.2-10.1-2.2-258.9-.1-268.8 6-28.1 25.5-51.4 51.8-61.9 13.2-5.3 19.3-5.9 62.1-6l38.7-.1v202.6z"/><path d="M305.1 167.1c-6.3 1.2-15.9 6-21 10.5-10.5 9.1-15.7 22-14.9 37.2.4 7.9.9 10 4.1 16.4 4.7 9.7 11.8 16.8 21.5 21.6 6.7 3.3 8.4 3.7 17.1 4 7.9.3 10.7 0 16-1.8 21.7-7.3 34.8-28.4 31.1-50-4.3-25.7-28.7-42.9-53.9-37.9zm170.6-99.4c-.4.3-.7 108.7-.7 240.9 0 218.1.1 240.2 1.6 240.8 2.7 1 80.3.6 89.9-.4 40.6-4.6 76.4-29.3 95.9-66 2.5-4.7 5.8-12.6 7.5-17.5 6.3-18.8 6.1-13.8 6.1-157.5 0-114.7-.2-131.8-1.6-139.1-9.9-52.1-49.6-91.4-101.8-100.4-7-1.2-17.8-1.5-52.6-1.5-24 0-44 .3-44.3.7zm106.8 217.8c15.6 4.1 28.4 16 33.6 31.2 3.3 9.4 3.2 23.2-.1 31.8-6.1 15.8-18.1 26.9-33.5 31-25 6.5-51.6-8.6-58.9-33.4-2.2-7.6-2.1-20.4.4-28.2 7.5-24.5 33.5-38.9 58.5-32.4zm166.8 336.9c-15.5 5.1-24.7 20-22.1 36.2 1.6 10.4 7.6 18.6 16.8 23.3 12.5 6.2 25.8 4.6 35.8-4.4 7.5-6.8 10.7-13.9 10.7-24 0-9.5-2.8-16.6-9.1-22.9-7.9-7.9-22.1-11.5-32.1-8.2zM767 637c6 3.1 9.3 8.1 9.8 14.9.6 8.9-3.2 15.3-11.1 18.6-13.4 5.6-28.6-7.3-24.8-21.2 1.6-6.2 4.3-9.7 9.3-12.2 5.4-2.6 11.7-2.7 16.8-.1zM79 653.5v30.6l6.3-.3 6.2-.3.5-19.3.5-19.3 14.5 19.5 14.5 19.6 6-.2 6-.3v-60l-6.2-.3-6.3-.3v39.5l-14.7-19.7L91.5 623H79v30.5zm100 0V684h13v-61h-13v30.5zm58.5-29.2c-.3.7-.4 14.3-.3 30.2l.3 29 6.3.3 6.2.3v-40.5l15 20.2 15 20.2h12v-61h-13l-.2 19.2-.3 19.2-14.4-19.2-14.3-19.2h-5.9c-3.9 0-6.1.4-6.4 1.3zm97.2-.6c-.4.3-.7 3.3-.7 6.5v5.8h20v48h13v-48h19v-13h-25.3c-14 0-25.7.3-26 .7zm95.3 29.8V684h47v-12h-35v-14h32v-11h-32v-12l17.3-.2 17.2-.3.3-5.8.3-5.7H430v30.5zm96.5-29.2c-.3.7-.4 14.3-.3 30.2l.3 29 6.3.3 6.2.3v-40.5l15 20.2 15 20.2h12v-61h-13l-.2 19.2-.3 19.2-14.4-19.2-14.3-19.2h-5.9c-3.9 0-6.1.4-6.4 1.3zM632 653.4V684h13.3c15.4 0 22.7-1.5 29.3-6.1 19.5-13.4 16.5-42.1-5.4-52.2-4.1-1.9-6.9-2.2-20.9-2.5l-16.3-.4v30.6zm32.7-15.5c8.4 3.9 12 14.6 7.8 23.5-3.2 6.6-9.7 9.6-21.1 9.6H644v-35h8.3c5.9 0 9.4.6 12.4 1.9zm-62.9 73.2c-13.9 1.8-26.3 8.3-36.5 19.2-22.3 24-21.6 60.5 1.7 83.7 8.6 8.7 16.4 13.2 27.6 16 18.4 4.7 37 1 52.2-10.5 5.9-4.4 13.6-13 13-14.5-.2-.4-4.3-4.1-9.2-8.4l-8.8-7.7-2.7 3.5c-12.9 16.9-39 18.7-54.1 3.6-2.2-2.2-5.2-6.3-6.7-9.2-2.5-4.8-2.8-6.3-2.8-15.3 0-8.6.3-10.7 2.5-15 7.4-15.3 25.7-23.6 41.6-19 7.4 2.1 14.4 6.5 18.8 11.8l3.4 4.1 4.4-3.6c2.4-1.9 6.6-5.6 9.3-8l5-4.5-3.9-4.8c-13-15.8-34-24-54.8-21.4zM107.2 715c-23.8 6.3-36.1 22.2-30.8 40.2 3.8 13.3 16.4 19.8 49.9 25.8 22.5 4 29.1 7.3 29.1 14.4 0 4.9-2.9 8.5-9.2 11.4-5.4 2.5-6.6 2.7-20.2 2.7-16.1 0-22.4-1.3-34.3-6.7-3.7-1.7-6.9-2.9-7.1-2.7-1.2 1.5-10.7 19.2-10.4 19.4 1 1.1 17 6.9 23.6 8.7 11 2.9 34.5 3.6 46.5 1.4 22.4-4.2 33.5-14.5 34.5-31.8.8-14.3-3.2-21.7-15.5-28.1-8.8-4.6-16.4-6.8-35.8-10.7-16.9-3.3-21.7-4.9-25.2-8.2-3.1-2.9-3.1-8.1.1-11.3 7.2-7.2 33-7.5 53-.5 3.3 1.1 6.3 1.7 6.7 1.3.7-.8 7.9-17.7 7.9-18.7 0-.9-15.3-5.4-23.9-7-11.6-2.2-29.6-2-38.9.4zm85.2.7c.3 1 7.3 25.9 15.6 55.3s15.3 54.3 15.6 55.2c.5 1.6 2.1 1.8 14.4 1.8h13.9l1.1-3.8c9.9-35.8 19.9-69.4 20.4-68.2.3.8 5 17.2 10.4 36.5l9.8 35 14 .3 14 .3 15.9-55.8c8.7-30.7 16-56.4 16.3-57.1.3-.9-2.5-1.2-12.2-1.2h-12.5l-1.4 4.7c-.8 2.7-5.6 20.7-10.7 40-5.2 19.4-9.6 35.3-10 35.3-.3 0-5-15.2-10.4-33.8-5.4-18.5-10.7-36.5-11.8-40l-1.9-6.3-10.2.3-10.2.3-11.7 40c-6.4 22-11.7 40.2-11.8 40.5-.1.3-4.6-15.9-9.9-36-5.4-20.1-10.4-38.4-11-40.8l-1.2-4.2h-12.5c-11.5 0-12.5.1-12 1.7zM382 771v57h26l-.2-56.8-.3-56.7-12.7-.3-12.8-.3V771zm53-44.5V739h36v89h25v-89l17.8-.2 17.7-.3v-24l-48.2-.3-48.3-.2v12.5zM686 771v57h24v-45h53v45h24l-.2-56.8-.3-56.7-11.7-.3-11.8-.3V759h-53v-45h-24v57z"/></svg>
