<?xml version="1.0" encoding="UTF-8" standalone="no"?>
<!-- Creator: CorelDRAW -->
<svg xmlns:dc="http://purl.org/dc/elements/1.1/" xmlns:cc="http://web.resource.org/cc/" xmlns:rdf="http://www.w3.org/1999/02/22-rdf-syntax-ns#" xmlns:svg="http://www.w3.org/2000/svg" xmlns="http://www.w3.org/2000/svg" xmlns:sodipodi="http://sodipodi.sourceforge.net/DTD/sodipodi-0.dtd" xmlns:inkscape="http://www.inkscape.org/namespaces/inkscape" xml:space="preserve" width="1772.6" height="206.5" style="shape-rendering:geometricPrecision; text-rendering:geometricPrecision; image-rendering:optimizeQuality; fill-rule:evenodd; clip-rule:evenodd" viewBox="0 0 210 297" id="svg2" sodipodi:version="0.32" inkscape:version="0.44.1" sodipodi:docname="Game_Boy_Advance.svg" sodipodi:docbase="C:\Documents and Settings\Matias\Desktop" version="1.0"><metadata id="metadata35"><rdf:RDF><cc:Work rdf:about=""><dc:format>image/svg+xml</dc:format><dc:type rdf:resource="http://purl.org/dc/dcmitype/StillImage"/></cc:Work></rdf:RDF></metadata><sodipodi:namedview inkscape:window-height="844" inkscape:window-width="1440" inkscape:pageshadow="2" inkscape:pageopacity="0.0" guidetolerance="10.0" gridtolerance="10.0" objecttolerance="10.0" borderopacity="1.0" bordercolor="#666666" pagecolor="#ffffff" id="base" width="1772.6px" height="206.5px" inkscape:zoom="0.32" inkscape:cx="995.52531" inkscape:cy="283.81045" inkscape:window-x="-4" inkscape:window-y="-4" inkscape:current-layer="svg2"/>
 <defs id="defs4">
  <style type="text/css" id="style6">
   
    .fil0 {fill:#1F00CC}
    .fil1 {fill:white}
   
  </style>
 </defs>
 <g id="Camada_x0020_1" transform="matrix(38.51719,0,0,38.51719,-3943.885,-5571.296)">
  <metadata id="CorelCorpID_0Corel-Layer"/>
  <path class="fil0" d="M 106.48,145.601 L 106.9854,144.7906 L 99.2743,144.7906 C 98.6819,144.7993 98.1329,144.965 97.6275,145.2874 L 97.0351,145.7231 C 96.7737,145.4093 96.521,145.1915 96.2683,145.0434 C 95.9546,144.8691 95.6061,144.7907 95.2052,144.7907 L 82.1442,144.7906 L 81.7172,146.089 L 81.5081,144.7906 L 78.6502,144.7906 L 78.5457,145.0347 L 78.2755,144.9388 C 76.7681,144.4248 75.3218,144.5816 73.9538,145.4268 C 73.2567,145.8711 72.7339,146.4288 72.4116,147.1084 C 72.0804,147.788 71.9672,148.5461 72.0456,149.4087 C 72.0979,149.9228 72.2808,150.402 72.5946,150.8377 C 72.9082,151.2733 73.309,151.6219 73.8056,151.8746 C 74.5288,152.2492 75.313,152.3625 76.132,152.2318 L 78.6763,152.2317 L 79.3124,150.8202 L 79.5477,152.2317 L 94.8306,152.2144 C 95.1617,152.2144 95.4928,152.136 95.8326,151.9879 C 96.1637,151.8396 96.4512,151.6306 96.7126,151.3692 C 97.1396,151.8222 97.645,152.1273 98.2374,152.2492 C 99.039,152.441 99.8145,152.3015 100.5464,151.8397 L 100.6423,151.7699 L 100.5726,152.2317 L 103.6832,152.2317 L 103.7616,151.6916 C 103.9447,151.6654 104.0927,151.5696 104.2234,151.4128 L 112.6838,151.4128 C 113.9821,151.4128 114.9404,151.0816 115.5242,150.4108 L 116.1517,151.4128 L 125.2046,151.4128 L 125.2046,150.1406 L 126.8341,151.4128 L 138.0218,151.4128 L 138.0218,145.6098 L 125.9017,145.6098 L 125.9017,146.8645 L 124.2984,145.6098 L 117.8506,145.6098 L 117.0578,147.1171 L 116.1778,145.601 L 106.48,145.601 L 106.48,145.601 z " id="path10" style="fill:#1f00cc"/>
  <path class="fil1" d="M 108.458,146.568 L 107.4908,146.568 L 105.2079,150.4107 L 107.9264,150.4107 L 107.9264,149.5567 L 106.8199,149.5567 L 107.9264,147.57 L 109.5295,150.4107 L 110.7669,150.4107 L 110.7669,150.4018 L 112.7013,150.4018 C 114.3742,150.4018 115.2105,149.7571 115.2105,148.4763 C 115.2105,148.2585 115.1844,148.0493 115.1235,147.8577 L 116.6657,150.4018 L 117.4063,150.4018 L 119.6281,146.568 L 118.4519,146.568 L 117.0666,149.0775 L 115.6027,146.568 L 114.3394,146.568 L 114.6878,147.1432 C 114.2783,146.7598 113.6944,146.5681 112.9277,146.5681 L 110.3834,146.568 L 110.3834,149.757 L 108.458,146.568 L 108.458,146.568 z M 111.4814,147.4394 L 112.9364,147.4394 C 113.6944,147.4394 114.0779,147.7706 114.0779,148.4328 C 114.0779,148.8335 113.9559,149.1211 113.7293,149.2779 C 113.5116,149.4346 113.0933,149.5132 112.5095,149.5132 L 111.4814,149.5131 L 111.4814,147.4394 L 111.4814,147.4394 z " id="path12" style="fill:white"/>
  <polygon class="fil1" points="121.266,146.568 120.29,146.568 118.016,150.411 119.167,150.411 119.167,150.402 120.735,150.402 120.735,149.548 119.637,149.548 120.726,147.57 122.329,150.411 123.584,150.411 123.584,150.402 124.22,150.402 124.22,148.084 127.122,150.402 127.871,150.402 127.871,146.568 126.869,146.568 126.869,148.86 123.941,146.568 123.192,146.568 123.192,149.757 121.266,146.568 " id="polygon14" style="fill:white"/>
  <path class="fil1" d="M 128.446,146.786 C 128.289,146.9253 128.2106,147.1781 128.2106,147.5354 L 128.2106,149.4347 C 128.2106,149.8008 128.289,150.0535 128.4459,150.1929 C 128.594,150.3323 128.8641,150.402 129.2562,150.402 L 131.5129,150.4019 C 131.905,150.4019 132.1839,150.3323 132.332,150.1929 C 132.4801,150.0535 132.5672,149.8008 132.5672,149.4348 L 132.5672,148.9033 L 131.4607,148.8859 L 131.4607,149.4785 L 129.3173,149.4785 L 129.3173,147.4656 L 131.4607,147.4656 L 131.4607,147.9884 L 132.5672,147.9884 L 132.5672,147.5354 C 132.5672,147.1607 132.4801,146.9081 132.332,146.786 C 132.184,146.638 131.9225,146.5682 131.5129,146.5682 L 129.2562,146.5681 C 128.8642,146.5681 128.594,146.638 128.446,146.786 L 128.446,146.786 z " id="path16" style="fill:white"/>
  <polygon class="fil1" points="134.04,147.988 134.04,147.439 137.028,147.439 137.028,146.568 132.933,146.568 132.933,150.402 137.081,150.402 137.081,149.513 134.04,149.513 134.04,148.833 135.791,148.833 135.791,147.988 134.04,147.988 " id="polygon18" style="fill:white"/>
  <path class="fil1" d="M 77.9357,145.845 C 76.7333,145.4093 75.5745,145.5488 74.4592,146.2372 C 73.3612,146.908 72.8821,147.9362 73.0127,149.278 C 73.0476,149.6701 73.1957,150.0273 73.4484,150.341 C 73.7011,150.6546 74.0234,150.8812 74.4069,151.0555 C 74.7989,151.2297 75.2085,151.2995 75.6441,151.2733 C 76.1234,151.2472 76.559,151.1078 76.986,150.8725 L 77.0296,150.8462 L 76.864,151.2123 L 78.0316,151.2123 L 78.7809,149.583 L 80.0705,149.583 L 80.358,151.2123 L 82.2662,151.2123 L 83.242,148.1628 L 83.8694,151.2123 L 84.6275,151.2123 L 86.0913,147.8316 L 86.2394,151.2123 L 87.3547,151.2123 L 87.1282,145.7492 L 85.7688,145.7492 L 84.4968,148.7377 L 83.9478,145.7492 L 82.8325,145.7492 L 81.3948,150.1667 L 80.6543,145.7492 L 79.2775,145.7492 L 77.1689,150.5152 L 77.4739,148.5198 L 75.3915,148.5198 L 75.2346,149.548 L 76.1059,149.548 L 76.0188,150.0969 L 75.1039,150.158 C 74.738,150.0621 74.4766,149.8706 74.3023,149.5656 C 74.1542,149.278 74.0845,148.9818 74.1193,148.6507 C 74.1629,148.1889 74.3894,147.7707 74.8164,147.396 C 75.1998,147.0562 75.6964,146.8645 76.2889,146.786 C 76.8552,146.6989 77.3519,146.76 77.7702,146.9429 L 77.9357,145.845 L 77.9357,145.845 z M 79.9049,148.5198 L 79.2165,148.5198 L 79.6958,147.4656 L 79.9049,148.5198 z " id="path20" style="fill:white"/>
  <polygon class="fil1" points="91.4324,145.749 88.3218,145.749 87.4505,151.212 90.5786,151.212 90.779,150.053 88.8098,150.053 88.9666,149.077 90.6744,149.077 90.8574,147.901 89.1322,147.901 89.2803,146.925 91.2495,146.925 91.4324,145.749 " id="polygon22" style="fill:white"/>
  <polygon class="fil1" points="105.19,145.749 103.884,145.749 102.768,147.535 102.071,145.749 100.782,145.749 102.115,148.633 101.697,151.212 102.829,151.212 103.169,148.938 105.19,145.749 " id="polygon24" style="fill:white"/>
  <path class="fil1" d="M 99.71,145.801 C 99.0739,145.6528 98.4901,145.8011 97.9237,146.2368 C 97.3574,146.6549 96.9914,147.2562 96.7998,148.0141 C 96.6343,148.7634 96.7126,149.4693 97.0176,150.0966 C 97.34,150.7413 97.8018,151.1336 98.4379,151.2729 C 99.0652,151.4211 99.649,151.2729 100.2153,150.8459 C 100.7817,150.4104 101.1563,149.8091 101.3307,149.051 C 101.5049,148.3018 101.4265,147.6046 101.1128,146.9686 C 100.7991,146.3326 100.3285,145.9405 99.71,145.801 L 99.71,145.801 z M 99.6141,146.8902 C 99.9191,147.0121 100.1108,147.291 100.2153,147.7005 C 100.3199,148.1187 100.2938,148.5544 100.1456,149.0162 C 99.9976,149.4693 99.7535,149.8091 99.4399,150.0269 C 99.1175,150.2621 98.8125,150.3058 98.525,150.1751 C 98.2201,150.0531 98.0196,149.7742 97.9151,149.3648 C 97.8018,148.9378 97.8453,148.5022 97.9935,148.049 C 98.1416,147.6045 98.3856,147.2562 98.6993,147.0209 C 99.0043,146.8031 99.3179,146.7508 99.6141,146.8902 L 99.6141,146.8902 z " id="path26" style="fill:white"/>
  <path class="fil1" d="M 95.8849,145.993 C 95.667,145.8536 95.4493,145.7839 95.2401,145.7839 L 93.1489,145.7839 L 92.2864,151.2122 L 94.7957,151.2122 C 95.0658,151.2122 95.3447,151.1252 95.6322,150.9509 C 95.9197,150.7766 96.1376,150.5588 96.3118,150.2974 C 96.4948,149.9923 96.5645,149.6962 96.5297,149.3825 C 96.4948,149.0426 96.3118,148.7203 95.9895,148.4153 C 96.6255,147.7617 96.7737,147.1432 96.4425,146.5507 C 96.3118,146.3329 96.1289,146.1412 95.8849,145.993 z M 93.9418,147.9449 L 94.1162,146.934 L 94.848,146.934 C 95.031,146.934 95.1704,146.9864 95.2662,147.0909 C 95.3447,147.1867 95.3795,147.3001 95.3621,147.4394 C 95.3447,147.5789 95.2749,147.6922 95.1704,147.788 C 95.0484,147.8926 94.9003,147.9449 94.726,147.9449 L 93.9418,147.9449 L 95.2052,149.2342 C 95.3098,149.3389 95.3621,149.4696 95.3534,149.6178 C 95.3447,149.7658 95.2749,149.8879 95.1443,149.9924 C 95.0136,150.0968 94.8306,150.158 94.5779,150.158 L 93.5933,150.1579 L 93.7676,149.0601 L 94.7086,149.0601 C 94.9177,149.0601 95.0833,149.1211 95.2052,149.2343 L 93.9418,147.9449 L 93.9418,147.9449 z " id="path28" style="fill:white"/>
  <path class="fil1" d="M 104.197,150.724 C 104.197,150.5671 104.136,150.4452 104.0402,150.3406 C 103.9356,150.2359 103.8049,150.1751 103.6568,150.1751 C 103.5086,150.175 103.3779,150.236 103.2734,150.3406 C 103.1688,150.4452 103.1165,150.5672 103.1165,150.724 C 103.1165,150.872 103.1688,150.9941 103.2734,151.0986 C 103.3779,151.2032 103.5086,151.2642 103.6568,151.2642 C 103.8049,151.2641 103.9356,151.2033 104.0402,151.0986 C 104.136,150.9941 104.197,150.8721 104.197,150.724 z M 103.9791,150.4015 C 104.0576,150.48 104.1098,150.5933 104.1098,150.724 C 104.1098,150.8458 104.0576,150.9506 103.9791,151.0464 C 103.9007,151.1248 103.7875,151.1684 103.6568,151.1684 C 103.5261,151.1684 103.4128,151.1249 103.3344,151.0464 C 103.2385,150.9505 103.1949,150.8459 103.1949,150.724 C 103.1949,150.5932 103.2385,150.4801 103.3344,150.4016 C 103.4128,150.3058 103.5261,150.2622 103.6568,150.2622 C 103.7875,150.2621 103.9007,150.3058 103.9791,150.4015 z " id="path30" style="fill:white"/>
  <path class="fil1" d="M 103.849,150.446 L 103.7009,150.4112 L 103.4396,150.4112 L 103.4396,151.0211 L 103.5267,151.0211 L 103.5267,150.7421 L 103.6486,150.7421 L 103.8142,151.0211 L 103.9101,151.0211 L 103.727,150.7421 C 103.849,150.7421 103.9188,150.6899 103.9188,150.568 C 103.9188,150.5156 103.9013,150.4634 103.849,150.446 z M 103.8317,150.5679 C 103.8317,150.6377 103.7619,150.6725 103.6312,150.6725 L 103.5267,150.6725 L 103.5267,150.4808 L 103.6922,150.4808 C 103.7881,150.4808 103.8317,150.5157 103.8317,150.5679 L 103.8317,150.5679 z " id="path32" style="fill:white"/>
 </g>
</svg>