<svg xmlns:svg="http://www.w3.org/2000/svg" xmlns="http://www.w3.org/2000/svg" version="1" width="1024" height="387" viewBox="0 0 233.9 88.4"><g transform="translate(-54.367675,-36.753537)"><path d="M43.5 566.6L230.6 566.6 230.6 495.9 43.5 495.9 43.5 566.6z" transform="matrix(1.25,0,0,-1.25,0,745)" fill="#fe000c"/><path d="M43.7 20.9C40.8 20.9 38.4 22.6 37.5 25.1L37.5 25.2 21.5 65.8 31.1 65.8 34.8 55.7 52.6 55.7 56.4 65.8 66.3 65.8 49.8 25.1C48.9 22.6 46.5 20.9 43.7 20.9zM111.1 20.9C111.1 25.9 111.1 36 107.9 42.8 104.4 50.4 95.4 54.5 92.7 54.5L92.7 65.6C103 64.6 110 54.5 112.6 44.8 114.8 36.5 114.6 22.3 114.6 20.9L111.1 20.9zM116.7 20.9C116.7 20.9 116.7 39.8 116.3 47.3 115.4 60.5 111.8 65.6 111.8 65.6L126.1 65.6C126.1 65.6 122.2 60.5 121.3 47.3 120.7 39.6 120.7 20.9 120.7 20.9L116.7 20.9zM122.8 20.9C122.8 22.3 122.5 36.5 124.8 44.8 127.4 54.5 134.3 64.6 144.6 65.6L144.6 54.5C141.9 54.5 133 50.4 129.5 42.8 126.3 36 126.2 25.9 126.2 20.9L122.8 20.9zM63.9 21.2C62.3 21.2 61.1 22.4 61.1 24L61.1 28.7 75 28.7 75 65.8 84 65.8 84 28.7 97.9 28.7 97.9 24C97.9 22.4 96.6 21.2 95.1 21.2L63.9 21.2zM159.4 21.2C155.7 21.2 152.8 24.1 152.8 27.8L152.8 65.8 161.8 65.8 161.8 30.5C161.8 29.4 162.6 28.5 163.8 28.5L169.8 28.5C170.3 28.5 172 28.5 172.3 28.6 175 28.8 177.2 30.7 177.8 33.2 177.8 33.3 177.9 33.4 177.9 33.5 177.9 33.7 177.9 33.8 177.9 34 178 34.2 178 34.5 178 34.7 178 37 176.7 39 174.8 40.1 174.4 40.3 174 40.5 173.6 40.7 173.3 40.8 173 41 172.6 41.1 170.2 41.9 169.1 42.4 168.1 43.4 167 44.6 166.3 46.2 166.3 48 166.2 49.6 166.8 51.1 167.8 52.3L179.2 65.8 189.9 65.8 176.8 50C176.5 49.6 176.4 49.2 176.4 48.8 176.4 48.3 176.5 48 176.8 47.7 177.1 47.3 177.7 47 178.1 46.8 182.9 44.6 186.3 40 186.3 34.7 186.3 27.6 180.3 21.7 172.9 21.3 171.9 21.2 169.9 21.2 169.9 21.2L159.4 21.2zM197.2 21.2L197.2 65.8 206.1 65.8 206.1 21.2 197.2 21.2zM43.5 31.6L49.7 48.2 37.5 48.2 43.5 31.6z" transform="translate(54.367675,36.753537)" fill="#fff"/></g></svg>
