<?xml version="1.0" encoding="utf-8"?>
<!-- Generator: Adobe Illustrator 15.0.2, SVG Export Plug-In  -->
<!DOCTYPE svg PUBLIC "-//W3C//DTD SVG 1.1//EN" "http://www.w3.org/Graphics/SVG/1.1/DTD/svg11.dtd" [
	<!ENTITY ns_flows "http://ns.adobe.com/Flows/1.0/">
]>
<svg version="1.1"
	 xmlns="http://www.w3.org/2000/svg" xmlns:xlink="http://www.w3.org/1999/xlink" xmlns:a="http://ns.adobe.com/AdobeSVGViewerExtensions/3.0/"
	 x="0px" y="0px" width="134px" height="36px" viewBox="47.5170898 -0.1396484 134 36"
	 enable-background="new 47.5170898 -0.1396484 134 36" xml:space="preserve">
<defs>
</defs>
<polygon fill="#6B6B6B" points="161.8979492,7.9121094 161.8979492,24.9296875 149.362793,7.8994141 147.3081055,7.8955078 
	147.3081055,28.6152344 149.612793,28.6152344 149.612793,11.9741211 161.8959961,28.6289063 164.206543,28.6308594 
	164.206543,7.9121094 "/>
<path fill="#6B6B6B" d="M135.3237305,7.4311523c-5.8261719,0-9.8984375,4.4560547-9.8984375,10.8349609
	c0,6.3891602,4.0722656,10.8442383,9.8984375,10.8442383c5.8203125,0,9.8789063-4.4550781,9.8789063-10.8442383
	C145.2026367,11.887207,141.144043,7.4311523,135.3237305,7.4311523 M135.3237305,26.9150391
	c-4.4375,0-7.5488281-3.5566406-7.5488281-8.6489258c0-5.0878906,3.1113281-8.6450195,7.5488281-8.6450195
	c4.4316406,0,7.5234375,3.5571289,7.5234375,8.6450195C142.847168,23.3583984,139.7553711,26.9150391,135.3237305,26.9150391"/>
<polygon fill="#6B6B6B" points="169.1225586,26.6044922 169.1225586,18.9375 180.5288086,18.9375 180.5288086,16.9091797 
	169.1225586,16.9091797 169.1225586,9.925293 181.3041992,9.925293 181.3041992,7.8984375 166.7983398,7.8984375 
	166.7983398,28.6328125 181.4467773,28.6328125 181.4467773,26.6044922 "/>
<polygon fill="#177D3E" points="118.9311523,28.6503906 112.3081055,19.6577148 105.6884766,28.6503906 102.9599609,28.6503906 
	110.925293,17.7856445 103.6523438,7.9116211 106.3789063,7.9116211 112.3081055,15.9658203 118.2319336,7.9116211 
	120.956543,7.9116211 113.6870117,17.7856445 121.6557617,28.6503906 "/>
<path fill="#177D3E" d="M82.4667969,18.5703125c-0.4326172-0.3686523-0.9023438-0.6538086-1.3583984-0.8647461
	c1.5048828-0.8168945,2.4921875-2.3608398,2.4921875-4.1518555c0-1.3271484-0.4892578-5.6411133-6.7412109-5.6411133h-8.4208984
	v8.9399414h-2.8056641c-0.3652344,0.4741211-1.1904297,1.612793-1.5058594,2.0810547h4.3115234v9.7148438l8.4208984,0.0009766
	c4.5615234,0,7.3964844-2.3173828,7.3964844-6.0537109C84.2558594,20.9628906,83.6386719,19.574707,82.4667969,18.5703125
	 M70.7666016,10.0756836h6.0927734c1.6503906,0,4.4111328,0.4106445,4.4111328,3.2958984
	c0,2.1811523-1.609375,3.480957-4.4111328,3.480957h-6.0927734V10.0756836z M76.859375,26.4863281h-6.0927734v-7.5498047h6.0927734
	c2.3105469,0,5.0742188,0.6381836,5.0742188,3.6142578C81.9335938,25.9726563,78.7558594,26.4863281,76.859375,26.4863281"/>
<path fill="#177D3E" d="M95.2089844,7.4326172c-5.8242188,0-9.8955078,4.4560547-9.8955078,10.8349609
	c0,6.3886719,4.0712891,10.8417969,9.8955078,10.8417969c5.8203125,0,9.8789063-4.453125,9.8789063-10.8417969
	C105.0878906,11.8886719,101.0292969,7.4326172,95.2089844,7.4326172 M95.2089844,26.9160156
	c-4.4375,0-7.5458984-3.5566406-7.5458984-8.6484375c0-5.0878906,3.1083984-8.6435547,7.5458984-8.6435547
	c4.4306641,0,7.5234375,3.5556641,7.5234375,8.6435547C102.7324219,23.359375,99.6396484,26.9160156,95.2089844,26.9160156"/>
<polygon fill="#177D3E" points="67.3056641,28.6484375 59.3339844,17.7851563 66.6083984,7.9121094 63.8828125,7.9121094 
	57.953125,15.9682617 52.0283203,7.9121094 49.3105469,7.9121094 56.5800781,17.7851563 48.609375,28.6484375 
	51.3398438,28.6484375 57.9570313,19.6582031 64.578125,28.6484375 "/>
</svg>
