<?xml version="1.0" encoding="UTF-8" standalone="no"?>
<svg xmlns:rdf="http://www.w3.org/1999/02/22-rdf-syntax-ns#" xmlns="http://www.w3.org/2000/svg" height="159.173" width="456.11" version="1.1" xmlns:cc="http://creativecommons.org/ns#" xmlns:xlink="http://www.w3.org/1999/xlink" xmlns:dc="http://purl.org/dc/elements/1.1/">
 <defs>
  <linearGradient id="a" y2="550.203" gradientUnits="userSpaceOnUse" x2="392.361" y1="483.06" x1="392.361">
   <stop stop-color="#f57e25" offset="0"/>
   <stop stop-color="#fcd660" offset="1"/>
  </linearGradient>
 </defs>
 <g fill-rule="evenodd" transform="translate(-171.945 -404.204)">
  <path d="m535.6 475.805-70.1262 77.5723h-166.172l-2.80362-2.69434c-7.87013-7.56299-15.7433-15.1221-23.6129-22.6846l-42.809-41.1284-39.7686-38.2012c-1.89747-1.80662-4.01123-3.79975-5.58448-5.83987-6.37695-8.21138-1.20751-19.0209 9.73434-19.0209h20.0972 18.0298c1.38187 0 2.65237-0.0675 4.04737 0.0725 2.16313 0.2175 4.09863 0.84125 5.85838 1.74625 1.92187-1.13875 4.29487-1.8125 7.02925-1.8125h32.6568c0.54637 0 1.09962-0.0337 1.646-0.05 3.605-0.10875 6.625 0.50625 9.208 1.72 1.81787-1.05625 4.088-1.67 6.7745-1.67h16.0838 0.4625l0.4625 0.0425c1.62125 0.15125 3.1575 0.585 4.52125 1.27625 1.735-0.84875 3.77875-1.31875 5.995-1.31875h11.0112c3.495 0 6.25125-0.17375 9.5325 1.49625 0.12 0.0625 0.23875 0.125 0.35625 0.18875 1.9025-1.07 4.2075-1.685 6.88-1.685h39.0838c3.73875 0 6.9025 0.0138 10.13 1.94375 2.19375-1.23625 4.74875-1.94375 7.52625-1.94375h37.3125c3.64625 0 6.86875 0.0638 9.84 1.905 2.3725-1.2125 5.03375-1.905 7.8175-1.905h39.395c3.64125 0 7.02375 0.0763 9.91125 1.84625 0.87875-0.47125 1.8175-0.86375 2.8275-1.15875 2.81625-0.8275 5.2525-0.6875 8.11-0.6875h13.3262c2.3925 0 4.65125 0.415 6.55875 1.47875 1.56625-0.8225 3.3375-1.29375 5.19125-1.44625l0.405-0.0325h0.4075 17.6588c1.62875 0 3.2175 0.25 4.67375 0.76125 0.23375-1.0675 0.64875-2.15375 1.26125-3.23125l0.4825-0.8475 0.655-0.7325c2.80375-3.13375 5.80875-5.76625 10.4062-5.5475h14.0588c3.88875 0 7.75625 0.7575 10.8338 3.205 6.5225 5.1875 6.3275 14.0981 1.845 20.4145-1.74625 2.46-4.36125 4.459-7.295 5.79588-0.40375 1.99712-1.4875 3.96737-3.3575 5.63962-1.08875 0.97513-2.15 1.9835-3.21875 2.982-2.95 2.75875-5.65 3.25738-9.5075 3.25738h-18.4025c-2.18625 0-4.20375-0.253-6.08375-1.10063l-13.3612 13.543c-4.425 4.52638-9.38875 7.80763-16.135 7.8515l-0.0688 0.0005c-0.59875-0.0005-1.19875-0.0005-1.7975-0.0005"/>
  <path style="color:#000000" d="m194.457 433.799h20.0972 18.0298c4.1025 0 5.78812-0.9785 12.854 8.57962 11.541 15.6114 21.6919 29.1274 30.6275 40.9399h-39.2149l-39.7842-39.9018c-1.6455-1.63488-3.7045-3.7325-4.66255-5.02988-1.70215-2.288-1.01905-4.58787 2.05318-4.58787zm37.9986 16.3365c0.75388-0.001 1.11613 0.0761 2.50926 1.76025l16.376 19.792c0.92575 1.11912 0.3095 1.84225-0.20175 1.8495-1.19675 0.0181-3.16112 0.0606-4.33737 0.0415-1.33588-0.0214-1.71388-0.32275-2.54388-1.2465l-18.1895-20.2441c-0.81737-0.91025-0.72125-1.94588 0.789-1.94725l5.59825-0.005zm17.0634-16.3316 20.0904 0.0005 12.5664-0.0005c4.09775 0 8.0655-1.42625 12.8438 8.56837l19.576 40.9463h-34.6409l-18.2182-25.1875c-0.7505-1.038-0.85213-1.17476-1.31738-1.96375-0.40625-0.6875 0.1045-1.46688 1.19188-1.53425 4.42287-0.0425 8.84524-0.0845 13.268-0.1265 2.17188 0.0391 2.937 0.0645 4.15488 2.08787 3.48975 5.17188 6.61425 10.5264 10.1045 15.6982 0.69325 1.28225 1.7055 1.335 3.80025 1.36038 2.41887 0.0294 3.86625-0.26563 2.38037-2.748l-11.479-19.1734c-1.72563-2.88225-6.81351-2.3965-7.56838-2.3965h-17.1552c-2.0235 0-3.56688 0.12063-4.8365-1.54287l-6.82863-9.41263c-1.66737-2.29887-1.00525-4.57575 2.06788-4.57575zm50.2852 0c5.22463 0 10.8588 0 16.0825 0.0005 0.83125 0.0806 1.30125 0.34225 1.41 0.78563 2.39625 5.95025 4.20625 11.9 6.60375 17.8501 0.445 1.148 0.845 1.66213 1.47125 1.544 1.33375 0.009 2.4375 0.0175 3.77125 0.0269 1.21875-0.0489 1.555-0.7315 1.1475-2.04738-1.555-5.65725-3.2775-10.9761-4.8325-16.6334-0.4175-1.396 0.43125-1.52638 1.87125-1.52638h11.0112c5.5125 0 6.40375-0.80512 8.45625 8.56837 1.62 7.39801 3.10375 14.7989 4.72375 22.1988 0.3825 2.44875-0.61125 4.43412-3.3125 4.36187l-5.15-0.0181 3.93375 14.4038h-19.0738l-5.7925-14.3681c-2.2275 0.001-3.395 0.002-5.6225 0.003-3.35625-0.025-5.02-2.209-6.4075-5.18462l-12.0652-25.3891c-1.09562-2.30612-1.29925-4.57575 1.774-4.57575zm55.305 0 21.14 0.0005 17.9438-0.0005c4.0975 0 7.05125-0.414 6.56 5.6275l-0.45375 5.59125c-0.075 0.916-0.15625 1.73437-0.3925 2.60113-0.515 1.89112-2.27625 2.17624-4.23625 2.20599h-22.1512c-1.005 0-1.33875 0.0566-1.3425 0.74613l-0.02 3.436c-0.005 0.78038 0.5425 0.67588 1.78875 0.67588h16.9425c1.24 0 2.44875-0.0581 3.66625 0.23387 2.27125 0.54437 3.49625 1.88087 4.12625 3.59125 0.52375 1.42675 0.31 2.60163 0.18875 4.08988l-1.68375 20.7158h-38.0425l-1.205-6.91838c-0.21-1.20462 0.16-1.958 1.6225-1.9575h20.0512c3.48125-0.5035 3.59625-2.90875 3.245-5.5875h-21.3962c-2.1925 0.0991-3.6025-0.57225-4.5425-1.65575-0.87-1.00237-0.92125-1.92812-1.14125-3.19287l-4.2075-24.1586c-0.6175-3.54937 0.4675-6.044 3.54-6.044zm56.74 0 19.8412 0.0005 17.4712-0.0005c3.99 0 6.94375-0.40475 5.00625 5.479l-1.9625 5.95663c-0.29625 0.892-0.5775 1.68837-1.02 2.53262-0.965 1.84087-2.75 2.11875-4.665 2.148h-19.7388c-0.98 0-1.3125 0.0556-1.49125 0.72612l-1.00875 3.78513c-0.20125 0.75875 0.3625 0.65775 1.57625 0.65775h14.6675c1.2075 0 2.3975-0.0558 3.51125 0.228 2.0775 0.52975 2.94375 1.831 3.13625 3.4965 0.16 1.38875-0.33625 2.53325-0.82 3.9815l-7.3125 20.5234h-36.4638l0.79375-6.67475c0.0925-1.17287 0.63625-1.90625 2.06125-1.90575h15.09c3.5125-0.49025 4.215-2.8315 4.53-5.44h-13.6325c-4.90375 0.21875-7.2-3.021-6.88125-7.33249l1.64-22.2774c0.255-3.45263 2.68-5.88425 5.67125-5.88425zm54.97 0 20.9488 0.0005 18.4462-0.0005c4.2125 0 7.44-0.40475 3.80125 5.479l-3.685 5.95663c-0.555 0.892-1.0675 1.68837-1.7625 2.53262-1.51875 1.84087-3.47875 2.11875-5.50875 2.148h-15.7388c-1.03375 0-2.38375-0.0981-2.35375 0.48387l0.15875 3.14163c0.0337 0.66013 0.71375 1.17037 1.995 1.17037h8.5825l6.005 0.041c1.31875 0.009 1.8675 1.21238 1.24625 2.25201l-2.3775 3.98187-5.57375 8.61138c-0.235 0.0118-0.47125 0.019-0.70875 0.0225h-16.8238c-1.0725 0-2.4825-0.0973-2.44125 0.64888l0.16375 2.97662c0.0375 0.65913 0.74125 1.17038 2.07 1.17038h9.4l5.19875 0.0346-5.73625 8.86325h-38.2012c3.67125-9.2485 3.53125-9.83487 15.3138-43.6304 1.20375-3.45263 4.4225-5.88425 7.58125-5.88425zm103.791 0c-5.73625 0-11.9225 0-17.6588 0.0005-0.94625 0.0806-1.57375 0.34225-1.88 0.78563-5.14875 5.95025-9.655 11.9-14.8038 17.8501-0.975 1.148-1.6325 1.66213-2.27 1.544-1.4675 0.009-2.6825 0.0175-4.15125 0.0269-1.3175-0.0489-1.3975-0.7315-0.39375-2.04738 4.1025-5.65725 8.24375-10.9761 12.345-16.6334 1.04875-1.396 0.17375-1.52638-1.40875-1.52638h-13.3262c-6.05125 0-6.69-0.80512-12.91 8.56837-4.90875 7.39801-9.67 14.7989-14.58 22.1988-1.45625 2.44875-1.20625 4.43412 1.79125 4.36187l6.8975-0.0181-10.415 14.4038h20.9425l12.44-14.3681c2.445 0.001 3.72625 0.002 6.17125 0.003 3.69625-0.025 6.4475-2.209 9.23-5.18462l23.9912-25.3891c2.17875-2.30612 3.3625-4.57575-0.0113-4.57575zm27.0325 10.0225c-1.14125 1.06688-2.25375 2.168-3.37125 3.25925-0.89125 0.87112-1.57 0.67875-2.82375 0.67875h-18.4025c-1.0975 0-1.83125-0.0655-2.23-0.37988-0.5825-0.4595-0.45125-1.30912 0.30375-2.07037 2.85875-3.03413 5.71875-6.06787 8.5775-9.102 1.37-1.25538 2.63875-2.54538 5.2425-3.38963 1.5925-0.51562 3.00125-0.63625 4.6475-0.63625h7.58c1.87125 0.17475 3.5925-3.50087 1.5975-4.20087h-12.4162c-1.63375 0.11625-2.1-0.46625-1.40125-1.75125 1.34625-1.57 2.1375-2.53 2.80125-2.45h14.4c1.455 0 3.53375 0.1525 4.7225 1.14 2.54125 2.11 1.77 6.037 0.0437 8.57562-1.4875 2.1875-4.82 3.70988-7.35625 3.79638h-9.90125c-2.4175 0.17525-5.5675 5.15963-1.20875 5.21725h8.68125c1.25625 0 1.28625 0.59225 0.51375 1.313" fill="#f57e25"/>
  <path d="m276.066 483.319c11.2964 14.9341 20.6489 27.1441 28.4012 37.4097 8.675 11.4965 15.9175 21.0986 22.0438 29.2163h-23.237c-6.79988-6.82177-14.5991-14.6402-23.6134-23.6845l-42.8095-42.9415h39.2149zm242.724 0h-20.9425l-48.1738 66.626h11.4288l57.6875-66.626zm-36.6638 0h-38.2012c-3.08875 7.77787-8.87125 21.6818-26.7175 66.626h21.7988l43.12-66.626zm-43.085 0h-36.4638l-7.9225 66.626h20.6475l23.7388-66.626zm-41.855 0h-38.0425l11.6012 66.626h21.0238l5.4175-66.626zm-50.1938 0h-19.0738l26.8612 66.626h10.41l-18.1975-66.626zm-32.3962 0h-34.6409l48.1896 66.626h18.3038l-31.8525-66.626" fill="url(#a)"/>
 </g>
</svg>
