<?xml version="1.0" encoding="utf-8"?>
<!-- Generator: Adobe Illustrator 12.0.0, SVG Export Plug-In . SVG Version: 6.00 Build 51448)  -->
<!DOCTYPE svg PUBLIC "-//W3C//DTD SVG 1.1//EN" "http://www.w3.org/Graphics/SVG/1.1/DTD/svg11.dtd" [
	<!ENTITY ns_svg "http://www.w3.org/2000/svg">
	<!ENTITY ns_xlink "http://www.w3.org/1999/xlink">
]>
<svg  version="1.1" xmlns="&ns_svg;" xmlns:xlink="&ns_xlink;" width="1142" height="284" viewBox="0 0 1142 284"
	 overflow="visible" enable-background="new 0 0 1142 284" xml:space="preserve">
<g id="Layer_3">
</g>
<g id="Layer_2">
</g>
<g id="Layer_1">
	<rect x="-57" y="-72" fill="#FFFFFF" width="1282" height="403"/>
	<g>
		<linearGradient id="XMLID_71_" gradientUnits="userSpaceOnUse" x1="35.8975" y1="195.1333" x2="167.7796" y2="63.2512">
			<stop  offset="0.1695" style="stop-color:#CACB3D"/>
			<stop  offset="0.4181" style="stop-color:#C8CA3D"/>
			<stop  offset="0.578" style="stop-color:#C2C93F"/>
			<stop  offset="0.7128" style="stop-color:#B6C443"/>
			<stop  offset="0.8337" style="stop-color:#A5BF48"/>
			<stop  offset="0.9443" style="stop-color:#8EB84D"/>
			<stop  offset="1" style="stop-color:#80B350"/>
		</linearGradient>
		<path fill="url(#XMLID_71_)" d="M183.934,82.728L51.041,20.614v186.339l132.893-0.483V82.728z"/>
	</g>
	<g>
		<linearGradient id="XMLID_72_" gradientUnits="userSpaceOnUse" x1="199.5601" y1="63.605" x2="330.8761" y2="194.921">
			<stop  offset="0" style="stop-color:#557E36"/>
			<stop  offset="0.077" style="stop-color:#6A9843"/>
			<stop  offset="0.1512" style="stop-color:#7AAC4C"/>
			<stop  offset="0.1921" style="stop-color:#80B350"/>
			<stop  offset="0.1969" style="stop-color:#83B44F"/>
			<stop  offset="0.2289" style="stop-color:#9BBB4B"/>
			<stop  offset="0.2657" style="stop-color:#ADC146"/>
			<stop  offset="0.3087" style="stop-color:#BBC642"/>
			<stop  offset="0.362" style="stop-color:#C3C83F"/>
			<stop  offset="0.4367" style="stop-color:#C9CB3D"/>
			<stop  offset="0.6441" style="stop-color:#CACB3D"/>
		</linearGradient>
		<path fill="url(#XMLID_72_)" d="M315.62,20.614L183.857,82.728v124.226H315.62V20.614z"/>
	</g>
	<g>
		<linearGradient id="XMLID_73_" gradientUnits="userSpaceOnUse" x1="188.3931" y1="160.5156" x2="324.37" y2="296.4925">
			<stop  offset="0" style="stop-color:#588237"/>
			<stop  offset="0.226" style="stop-color:#80B350"/>
			<stop  offset="0.2586" style="stop-color:#88B64F"/>
			<stop  offset="0.3788" style="stop-color:#A1BD49"/>
			<stop  offset="0.5067" style="stop-color:#B4C344"/>
			<stop  offset="0.6441" style="stop-color:#C1C841"/>
			<stop  offset="0.7976" style="stop-color:#C8CA3D"/>
			<stop  offset="1" style="stop-color:#CACB3D"/>
		</linearGradient>
		<path fill="url(#XMLID_73_)" d="M338.307,279.131v-16.373L229.005,123.125v156.006H338.307z"/>
	</g>
	<g>
		<linearGradient id="XMLID_74_" gradientUnits="userSpaceOnUse" x1="180.0635" y1="161.3955" x2="44.0877" y2="297.3713">
			<stop  offset="0" style="stop-color:#49702E"/>
			<stop  offset="0.2712" style="stop-color:#80B350"/>
			<stop  offset="0.3164" style="stop-color:#8EB84D"/>
			<stop  offset="0.4093" style="stop-color:#A5BF48"/>
			<stop  offset="0.5107" style="stop-color:#B6C443"/>
			<stop  offset="0.6234" style="stop-color:#C2C93F"/>
			<stop  offset="0.7564" style="stop-color:#C8CA3D"/>
			<stop  offset="0.9605" style="stop-color:#CACB3D"/>
		</linearGradient>
		<path fill="url(#XMLID_74_)" d="M139.402,280.059V124.055L30.104,263.689v16.37H139.402z"/>
	</g>
	<g>
		<linearGradient id="XMLID_75_" gradientUnits="userSpaceOnUse" x1="29.4063" y1="38.9116" x2="132.7511" y2="38.9116">
			<stop  offset="0" style="stop-color:#000000"/>
			<stop  offset="0" style="stop-color:#7D9461"/>
			<stop  offset="0.0451" style="stop-color:#829967"/>
			<stop  offset="0.3732" style="stop-color:#B1C09F"/>
			<stop  offset="0.6532" style="stop-color:#D6DECC"/>
			<stop  offset="0.871" style="stop-color:#EFF3EC"/>
			<stop  offset="1" style="stop-color:#FFFFFF"/>
		</linearGradient>
		<path fill="url(#XMLID_75_)" d="M21.429-4.904l22.39,20.703c32.26,23.595,78.966,45.743,140.115,66.929V71.172L21.429-4.904z"/>
	</g>
	<g>
		<linearGradient id="XMLID_76_" gradientUnits="userSpaceOnUse" x1="184.1992" y1="42.0415" x2="315.9444" y2="42.0415">
			<stop  offset="0" style="stop-color:#DBE7E2"/>
			<stop  offset="1" style="stop-color:#728858"/>
		</linearGradient>
		<path fill="url(#XMLID_76_)" d="M315.62,20.614l15.888-19.259L183.821,71.147l0.031,11.58
			C248.372,56.244,292.271,35.541,315.62,20.614z"/>
	</g>
	<g>
		<linearGradient id="XMLID_77_" gradientUnits="userSpaceOnUse" x1="228.5171" y1="198.374" x2="379.4658" y2="198.374">
			<stop  offset="0" style="stop-color:#FFFFFF"/>
			<stop  offset="0.1339" style="stop-color:#EEF1EB"/>
			<stop  offset="0.3723" style="stop-color:#D1DBC7"/>
			<stop  offset="0.6862" style="stop-color:#A8B893"/>
			<stop  offset="1" style="stop-color:#7D9461"/>
		</linearGradient>
		<path fill="url(#XMLID_77_)" d="M228.517,109.177l0.482,15.167c35.147,50.557,72.946,98.948,112.909,145.412l37.558,17.816
			L228.517,109.177z"/>
	</g>
	<g>
		<linearGradient id="XMLID_78_" gradientUnits="userSpaceOnUse" x1="-33.5664" y1="199.8506" x2="110.035" y2="199.8506">
			<stop  offset="0" style="stop-color:#659240"/>
			<stop  offset="1" style="stop-color:#DBE7E2"/>
		</linearGradient>
		<path fill="url(#XMLID_78_)" d="M139.377,125.098l0.239-15.648L-3.386,290.251l26.723-16.132
			C56.077,243.065,94.838,193.471,139.377,125.098z"/>
	</g>
	<g>
		<radialGradient id="XMLID_79_" cx="184.3857" cy="146.9932" r="333.0943" gradientUnits="userSpaceOnUse">
			<stop  offset="0" style="stop-color:#000000"/>
			<stop  offset="0.0311" style="stop-color:#4A4A4C"/>
			<stop  offset="0.0824" style="stop-color:#747678"/>
			<stop  offset="0.1361" style="stop-color:#96989B"/>
			<stop  offset="0.1912" style="stop-color:#B4B6B8"/>
			<stop  offset="0.248" style="stop-color:#CECFD1"/>
			<stop  offset="0.307" style="stop-color:#E2E3E4"/>
			<stop  offset="0.3692" style="stop-color:#F1F1F2"/>
			<stop  offset="0.4368" style="stop-color:#FAFAFB"/>
			<stop  offset="0.5198" style="stop-color:#FFFFFF"/>
		</radialGradient>
		<path fill="url(#XMLID_79_)" d="M288.658,192.989c27.444,35.391,58.499,69.577,93.89,102.798L377.253-48.48
			C301.899,34.096,252.306,86.821,228.471,109.209C253.029,144.839,273.009,172.767,288.658,192.989z"/>
	</g>
	<g>
		<radialGradient id="XMLID_80_" cx="184.7793" cy="146.874" r="337.9549" gradientUnits="userSpaceOnUse">
			<stop  offset="0" style="stop-color:#000000"/>
			<stop  offset="0.0688" style="stop-color:#595A5C"/>
			<stop  offset="0.171" style="stop-color:#909294"/>
			<stop  offset="0.2631" style="stop-color:#BDBFC1"/>
			<stop  offset="0.3416" style="stop-color:#DFE0E1"/>
			<stop  offset="0.4033" style="stop-color:#F4F5F5"/>
			<stop  offset="0.4407" style="stop-color:#FFFFFF"/>
		</radialGradient>
		<path fill="url(#XMLID_80_)" d="M291.697,25.67c33.225-16.854,54.41-33.223,64.038-48.389L174.362-44.26L3.526-29.221
			C18.452-8.757,44.693,10.985,82.25,29.521c14.203,7.224,31.055,14.687,51.037,22.63c7.946,3.131,25.04,9.871,50.557,19.742
			C231.032,53.838,266.902,38.672,291.697,25.67z"/>
	</g>
	<g>
		<path fill="#FFFFFF" d="M-6.015-52.813h-11.797l0.963,351.25c19.261-14.203,41.648-36.593,67.649-67.409
			c29.129-34.427,58.5-74.872,88.837-121.577l-43.335-41.89c-15.649-15.648-28.89-28.888-39.244-40.447
			C33.949,2.318,13.004-24.406-6.015-52.813z"/>
	</g>
	<g>
		<path fill="#FFFFFF" d="M-53.304,313.313v14.923h481.735v-10.833c-37.076-21.182-69.577-40.927-97.504-58.981
			c-53.687-35.39-102.798-72.464-147.095-111.707c-43.576,43.094-91.966,81.374-145.652,114.838
			c-24.556,15.408-53.204,31.537-86.187,49.112L-53.304,313.313z"/>
	</g>
	<g>
		<g>
			<path fill="#89C056" d="M1140.265,83.606h-1.978l-2.383,7.52c-0.391,0.596-0.591,1.191-0.591,1.582
				c-0.2-0.391-0.4-0.791-0.596-1.382l-2.578-7.72h-1.978v10.688h1.191v-9.106l3.169,9.106h1.182l3.174-8.911v8.911h1.387V83.606
				L1140.265,83.606z"/>
			<polygon fill="#89C056" points="1125.211,84.988 1128.58,84.988 1128.58,83.606 1120.265,83.606 1120.265,84.988 
				1123.829,84.988 1123.829,94.295 1125.211,94.295 1125.211,84.988 			"/>
		</g>
		<polygon fill="#89C056" points="1076.236,83.621 1016.598,131.878 957.252,83.621 923.688,83.621 1000.113,145.364 
			923.688,207.107 957.252,207.107 1016.598,158.553 1076.236,207.107 1109.503,207.107 1033.38,145.364 1109.503,83.621 
			1076.236,83.621 		"/>
		<path fill="#89C056" d="M913.8,145.364c0-27.573-7.192-47.949-20.977-61.743H770.846c-14.39,13.794-21.582,34.17-21.582,61.743
			c0,27.568,7.192,47.949,21.582,61.743h121.978C906.607,193.313,913.8,172.635,913.8,145.364L913.8,145.364z M893.419,145.364
			c0,9.292-2.09,18.877-5.996,28.774l-5.693,12.886H781.627l-5.693-12.886c-4.194-9.897-5.996-19.482-5.996-28.774
			c0-14.683,3.901-28.477,11.689-41.362h100.103C889.522,116.888,893.419,130.682,893.419,145.364L893.419,145.364z"/>
		<path fill="#89C056" d="M718.097,150.462v-10.19l8.989-4.8c-2.102-23.076-8.989-40.454-20.679-51.851H584.425
			c-11.689,11.094-18.879,28.477-20.681,51.548h-19.775v20.386h19.775c1.802,23.071,8.992,40.161,20.681,51.553h121.982
			c11.689-11.694,18.577-28.774,20.679-51.553L718.097,150.462L718.097,150.462z M695.318,104.002
			c5.396,9.292,9.287,19.482,11.089,31.167H584.425c1.799-11.685,5.393-21.875,11.089-31.167H695.318L695.318,104.002z
			 M706.407,155.555c-1.802,11.689-5.693,22.178-11.089,31.47h-99.805c-5.696-9.292-9.29-19.78-11.089-31.47H706.407
			L706.407,155.555z"/>
		<polygon fill="#89C056" points="476.834,145.364 552.955,83.621 519.386,83.621 460.05,131.878 400.406,83.621 367.44,83.621 
			443.265,145.364 367.44,207.107 400.406,207.107 460.05,158.553 519.386,207.107 552.955,207.107 476.834,145.364 		"/>
	</g>
	<g>
		<path fill="#80B350" d="M349.986,2.007h-1.239l-1.486,4.7c-0.244,0.374-0.369,0.745-0.369,0.991
			c-0.125-0.246-0.25-0.497-0.372-0.866l-1.611-4.825h-1.236v6.682h0.745V2.996l1.981,5.693h0.738l1.98-5.571v5.571h0.87V2.007
			L349.986,2.007z"/>
		<polygon fill="#80B350" points="340.578,2.872 342.683,2.872 342.683,2.007 337.486,2.007 337.486,2.872 339.714,2.872 
			339.714,8.688 340.578,8.688 340.578,2.872 		"/>
	</g>
</g>
</svg>
